<svg id="Group_463" data-name="Group 463" xmlns="http://www.w3.org/2000/svg" width="37.173" height="37.173" viewBox="0 0 37.173 37.173">
  <circle id="Ellipse_25" data-name="Ellipse 25" cx="13.143" cy="13.143" r="13.143" transform="translate(0 18.587) rotate(-45)" fill="#f7931a"/>
  <path id="Path_326" data-name="Path 326" d="M372.515,307.14a4.311,4.311,0,0,0-2.573-1.532.18.18,0,0,0-.02-.007l.69-2.473-1.33-.374-.691,2.479c-.4-.108-.838-.227-1.272-.339l.7-2.5-1.33-.373-.709,2.5c-.475-.114-2.72-.781-2.72-.781l-.43,1.442,1.71.519-2.043,7.283-1.692-.513-.431,1.472s2.229.694,2.732.861l-.712,2.514,1.33.374.7-2.479c.436.142.884.261,1.268.383l-.7,2.461,1.33.374.686-2.427a4.893,4.893,0,0,0,3.42-.061,2.877,2.877,0,0,0,1.437-1.809,2.731,2.731,0,0,0-1.366-3.158l.01-.029a2.529,2.529,0,0,0,2.349-1.765A2.231,2.231,0,0,0,372.515,307.14Zm-4.068,5.889c-.252.887-1.164,1.334-2.41.984l-1.065-.3.834-2.959a5.307,5.307,0,0,1,1.065.211C368.059,311.3,368.75,311.952,368.447,313.029Zm1.3-4.271a1.432,1.432,0,0,1-.991,1.011,2.432,2.432,0,0,1-1.416-.027l-.009,0-1.059-.3.837-2.959a5.31,5.31,0,0,1,1.062.211c.006,0,.009,0,.015,0a2.862,2.862,0,0,1,1.249.659A1.342,1.342,0,0,1,369.742,308.757Z" transform="translate(-348.407 -291.842)" fill="#fff"/>
</svg>
