<svg id="Group_465" data-name="Group 465" xmlns="http://www.w3.org/2000/svg" width="37.167" height="37.167" viewBox="0 0 37.167 37.167">
  <circle id="Ellipse_26" data-name="Ellipse 26" cx="13.14" cy="13.14" r="13.14" transform="translate(0 18.583) rotate(-45)" fill="#f7931a"/>
  <path id="Path_333" data-name="Path 333" d="M1613.675,307.695a4.31,4.31,0,0,0-2.994-.012c-.006,0-.012,0-.021,0l-.662-2.481-1.335.354.665,2.486c-.4.109-.837.231-1.268.354l-.665-2.506-1.335.354.659,2.512c-.467.143-2.739.709-2.739.709l.362,1.461,1.736-.421,1.941,7.31-1.718.418.376,1.487s2.272-.535,2.79-.646l.663,2.527,1.335-.354-.66-2.489c.447-.1.894-.225,1.286-.314l.643,2.477,1.335-.354-.642-2.438a4.892,4.892,0,0,0,2.914-1.789,2.876,2.876,0,0,0,.318-2.288,2.73,2.73,0,0,0-2.78-2.026l-.006-.03a2.528,2.528,0,0,0,1.127-2.713A2.231,2.231,0,0,0,1613.675,307.695Zm-.512,7.138c.234.892-.325,1.74-1.575,2.071l-1.071.281-.785-2.972a5.292,5.292,0,0,1,1.025-.359C1611.95,313.54,1612.877,313.752,1613.163,314.832Zm-1.054-4.336a1.432,1.432,0,0,1-.34,1.374,2.433,2.433,0,0,1-1.233.7l-.009,0-1.064.28-.782-2.973a5.3,5.3,0,0,1,1.022-.358c.005,0,.009,0,.014,0a2.862,2.862,0,0,1,1.41-.067A1.341,1.341,0,0,1,1612.109,310.5Z" transform="translate(-1592.007 -294.749)" fill="#fff"/>
</svg>
