<svg xmlns="http://www.w3.org/2000/svg" width="26.286" height="28.818" viewBox="0 0 26.286 28.818">
  <path id="Path_325" data-name="Path 325" d="M2172.928,250.639a5.749,5.749,0,0,0-1.7-.16,2.1,2.1,0,0,1-1.995-1.213l-.174-.364a2.131,2.131,0,0,1,.163-2.117l.359-.527a2.089,2.089,0,0,1,1.779-.93,5.771,5.771,0,0,0,1.448-.137,5.919,5.919,0,0,0-2.1-11.642,6.331,6.331,0,0,0-5.036,5.135,5.9,5.9,0,0,0,.889,3.912,2.121,2.121,0,0,1-.025,2.392l-.463.647a2.132,2.132,0,0,1-1.764.89h0a2.117,2.117,0,0,1-1.878-1.191,5.918,5.918,0,1,0-.081,5.3,2.092,2.092,0,0,1,1.863-1.1h.21a2.131,2.131,0,0,1,1.735.894l.323.453a2.142,2.142,0,0,1,.039,2.385,5.908,5.908,0,0,0-.844,3.882,6.336,6.336,0,0,0,5.033,5.1,5.918,5.918,0,0,0,2.221-11.613Z" transform="translate(-2151.18 -233.492)" fill="#008dc6"/>
</svg>
