<svg xmlns="http://www.w3.org/2000/svg" xmlns:xlink="http://www.w3.org/1999/xlink" width="28" height="28" viewBox="0 0 28 28">
  <defs>
    <clipPath id="clip-path">
      <rect id="Rectangle_20" data-name="Rectangle 20" width="28" height="28" transform="translate(318 390)" fill="#fff"/>
    </clipPath>
  </defs>
  <g id="Mask_Group_19" data-name="Mask Group 19" transform="translate(-318 -390)" clip-path="url(#clip-path)">
    <g id="badminton" transform="translate(318 390)">
      <g id="Group_80" data-name="Group 80">
        <path id="Path_228" data-name="Path 228" d="M13.973.055a13.7,13.7,0,0,0-8.7,3.038,18.131,18.131,0,0,0-.568,3.368A14.188,14.188,0,0,0,18.93,20.432,14.272,14.272,0,0,0,27.627,17a13.676,13.676,0,0,0,.318-2.972A13.973,13.973,0,0,0,13.973.055Z" fill="#aad540"/>
        <path id="Path_229" data-name="Path 229" d="M18.929,20.037A13.98,13.98,0,0,1,5.275,3.093h0A13.975,13.975,0,0,0,18.5,27.249l2.608-1.207A13.974,13.974,0,0,0,27.627,17a13.912,13.912,0,0,1-8.7,3.038Z" fill="#9dc63d"/>
      </g>
      <g id="Group_86" data-name="Group 86">
        <path id="Path_230" data-name="Path 230" d="M21.969,17.983,19.835,22.2v3.639l3.6-7.109Z" fill="#d80a61"/>
        <g id="Group_81" data-name="Group 81">
          <path id="Path_231" data-name="Path 231" d="M19.836,24.837a.822.822,0,0,1-.734-.451l-2.866-5.661a.822.822,0,1,1,1.466-.743l2.866,5.661a.822.822,0,0,1-.733,1.193Z" fill="#b10a4f"/>
        </g>
        <path id="Path_232" data-name="Path 232" d="M20.981,23.631h-1.11L19.11,25.44l.6,1.331a13.928,13.928,0,0,0,1.4-.729Z" fill="#50555a"/>
        <path id="Path_233" data-name="Path 233" d="M18.5,27.248q.617-.211,1.207-.478l.165-3.139H18.69Z" fill="#373c41"/>
        <g id="Group_82" data-name="Group 82">
          <path id="Path_234" data-name="Path 234" d="M26.434,5.614a8.827,8.827,0,0,0-.916-1.659v.837H23.9V3.176H24.9a7.734,7.734,0,0,0-.865-.822H23.9v-.1a7.163,7.163,0,0,0-.822-.551v.654H21.465V1.033a6.382,6.382,0,0,0-.822-.16V2.354H19.028V.874a6.391,6.391,0,0,0-.822.16V2.354H16.59V1.7a7.163,7.163,0,0,0-.822.551v.1h-.129a7.734,7.734,0,0,0-.865.822h.995V4.792H14.153V3.954a8.827,8.827,0,0,0-.916,1.659h.094V7.229h-.607q-.089.4-.145.822h.752V9.666H12.5q.012.41.055.822h.778V12.1h-.49q.1.415.235.822h.255v.711a12.149,12.149,0,0,0,.837,1.726h1.6v1.616h-.437a8.229,8.229,0,0,0,1.259,1.169V17.8h1.616v.9h.822v-.9h1.616v.9h.822v-.9h1.616v.347a8.229,8.229,0,0,0,1.259-1.169H23.9V15.363h1.6a12.151,12.151,0,0,0,.837-1.726v-.711h.255q.132-.407.235-.822h-.49V10.488h.778q.044-.412.055-.822H26.34V8.051h.752q-.055-.418-.145-.822H26.34V5.614ZM15.768,14.541H14.153V12.926h1.616Zm0-2.437H14.153V10.488h1.616Zm0-2.437H14.153V8.051h1.616Zm0-2.437H14.153V5.614h1.616Zm2.437,9.75H16.59V15.363h1.616Zm0-2.437H16.59V12.926h1.616Zm0-2.437H16.59V10.488h1.616Zm0-2.437H16.59V8.051h1.616Zm0-2.437H16.59V5.614h1.616Zm0-2.437H16.59V3.176h1.616Zm2.437,12.187H19.028V15.363h1.616Zm0-2.437H19.028V12.926h1.616Zm0-2.437H19.028V10.488h1.616Zm0-2.437H19.028V8.051h1.616Zm0-2.437H19.028V5.614h1.616Zm0-2.437H19.028V3.176h1.616Zm2.437,12.187H21.465V15.363h1.616Zm0-2.437H21.465V12.926h1.616Zm0-2.437H21.465V10.488h1.616Zm0-2.437H21.465V8.051h1.616Zm0-2.437H21.465V5.614h1.616Zm0-2.437H21.465V3.176h1.616Zm2.437,9.75H23.9V12.926h1.616Zm0-2.437H23.9V10.488h1.616Zm0-2.437H23.9V8.051h1.616Zm0-2.437H23.9V5.614h1.616Z" fill="#fff"/>
        </g>
        <g id="Group_83" data-name="Group 83">
          <path id="Path_235" data-name="Path 235" d="M25.449,12.926h.069v1.616H23.9V13.56a5.73,5.73,0,0,1-.822.144v.837H21.465v-.9a5.762,5.762,0,0,1-.822-.215v1.118H19.028V12.926h.531a6.5,6.5,0,0,1-1.352-1.058V12.1H16.59V10.488h.559a7.6,7.6,0,0,1-.42-.822H16.59v-.34a8.259,8.259,0,0,1,0-5.829V3.176h.131a7.618,7.618,0,0,1,.417-.822H16.59V1.7a7.163,7.163,0,0,0-.822.551v.1h-.129a7.734,7.734,0,0,0-.865.822h.995V4.792H14.153V3.954a8.827,8.827,0,0,0-.916,1.659h.094V7.229h-.607q-.089.4-.145.822h.752V9.666H12.5q.012.41.055.822h.778V12.1h-.49q.1.415.235.822h.255v.711a12.149,12.149,0,0,0,.837,1.726h1.6v1.616h-.437a8.229,8.229,0,0,0,1.259,1.169V17.8h1.616v.9h.822v-.9h1.616v.9h.822v-.9h1.616v.347a8.229,8.229,0,0,0,1.259-1.169H23.9V15.363h1.6a12.151,12.151,0,0,0,.837-1.726v-.711h.255q.132-.407.235-.822h-.273a6.432,6.432,0,0,1-1.108.822Zm-9.681,1.616H14.153V12.926h1.616Zm0-2.437H14.153V10.488h1.616Zm0-2.437H14.153V8.051h1.616Zm0-2.437H14.153V5.614h1.616Zm2.437,9.75H16.59V15.363h1.616Zm0-2.437H16.59V12.926h1.616Zm2.437,2.437H19.028V15.363h1.616Zm2.437,0H21.465V15.363h1.616Z" fill="#d2f0ff"/>
        </g>
        <g id="Group_84" data-name="Group 84">
          <path id="Path_236" data-name="Path 236" d="M19.835,20.129c-2.177,0-4.26-1.262-5.865-3.553a12.871,12.871,0,0,1-2.3-7.212A10.056,10.056,0,0,1,14.02,2.788a7.459,7.459,0,0,1,11.631,0A10.056,10.056,0,0,1,28,9.363a12.871,12.871,0,0,1-2.3,7.212C24.1,18.867,22.012,20.129,19.835,20.129Zm0-18.485c-3.6,0-6.521,3.463-6.521,7.719a11.349,11.349,0,0,0,2,6.269c1.289,1.84,2.894,2.853,4.519,2.853s3.23-1.013,4.519-2.853a11.349,11.349,0,0,0,2-6.269C26.356,5.107,23.431,1.644,19.835,1.644Z" fill="#da4a54"/>
        </g>
        <g id="Group_85" data-name="Group 85">
          <path id="Path_237" data-name="Path 237" d="M19.835,20.129c-2.177,0-4.26-1.262-5.865-3.553a12.871,12.871,0,0,1-2.3-7.212.822.822,0,0,1,1.644,0,11.349,11.349,0,0,0,2,6.269c1.289,1.84,2.894,2.853,4.519,2.853a.822.822,0,0,1,0,1.644Z" fill="#d80a61"/>
        </g>
      </g>
      <g id="Group_87" data-name="Group 87">
        <path id="Path_238" data-name="Path 238" d="M4.98,19.608H4.028L1.857,11.894a1.591,1.591,0,1,1,3.123-.431Z" fill="#afe6ff"/>
        <path id="Path_239" data-name="Path 239" d="M5.23,8.425a2.292,2.292,0,0,0-1.987,2.739L4.98,19.608H6.333V10.02a1.7,1.7,0,0,0-1.1-1.595Z" fill="#fff"/>
        <path id="Path_240" data-name="Path 240" d="M4.992,19.608l-.845-9.327A1.7,1.7,0,0,1,5.23,8.425a1.7,1.7,0,0,0-2.283,1.856l1.448,9.327Z" fill="#d2f0ff"/>
        <path id="Path_241" data-name="Path 241" d="M7.672,19.608h.952L10.8,11.894a1.591,1.591,0,1,0-3.123-.431Z" fill="#d2f0ff"/>
        <path id="Path_242" data-name="Path 242" d="M8.539,8.4c-.162-.051-1.651.212-1.651,1.152L6.32,19.608H8.258l1.448-9.327A1.7,1.7,0,0,0,8.539,8.4Z" fill="#fff"/>
        <path id="Path_243" data-name="Path 243" d="M6.913,19.608l.438-9.589A1.7,1.7,0,0,1,8.539,8.4,1.7,1.7,0,0,0,6.32,10.02v9.589h.593Z" fill="#d2f0ff"/>
        <path id="Path_244" data-name="Path 244" d="M5.818,20.788a1.458,1.458,0,0,0,1.949,1.46l.467-.168a2.289,2.289,0,0,0,.4-1.292Z" fill="#ffd23c"/>
        <path id="Path_245" data-name="Path 245" d="M7.9,22.1a2.3,2.3,0,0,1-2.08-1.316H4.028A2.3,2.3,0,0,0,8.235,22.08,2.32,2.32,0,0,1,7.9,22.1Z" fill="#ffc305"/>
        <path id="Path_246" data-name="Path 246" d="M5.709,19.608H8.631v1.18H5.709Z" fill="#da4a54"/>
        <path id="Path_247" data-name="Path 247" d="M4.028,19.608h1.8v1.18h-1.8Z" fill="#d80a61"/>
      </g>
    </g>
  </g>
</svg>
