<svg xmlns="http://www.w3.org/2000/svg" width="42.817" height="42.817" viewBox="0 0 42.817 42.817">
  <g id="bankrupt" transform="translate(-7 -7)">
    <path id="rect816" d="M13.423,7a6.423,6.423,0,0,0,0,12.845H47.248v27.4H13.423a3.817,3.817,0,0,1-3.854-3.854V21.13A1.285,1.285,0,1,0,7,21.13V43.394a6.437,6.437,0,0,0,6.423,6.423h35.11a1.285,1.285,0,0,0,1.285-1.284V18.561a1.285,1.285,0,0,0-1.284-1.285H13.423a3.854,3.854,0,0,1,0-7.707H42.11v4.71a1.285,1.285,0,1,0,2.569,0V8.285A1.285,1.285,0,0,0,43.394,7Z" transform="translate(0 0)" fill="#df1b1b"/>
    <path id="path923" d="M30.72,42a11.952,11.952,0,0,0-7.063,2.3,1.285,1.285,0,1,0,1.514,2.074,9.428,9.428,0,0,1,11.1,0A1.285,1.285,0,1,0,37.783,44.3,11.952,11.952,0,0,0,30.72,42Z" transform="translate(-2.312 -5.028)" fill="#fff"/>
    <path id="path1192" d="M37.079,31.107a1.285,1.285,0,0,0,.027,1.815l.606.606-.606.606a1.285,1.285,0,1,0,1.817,1.817l.605-.606.606.606a1.285,1.285,0,1,0,1.817-1.817l-.606-.605.606-.606a1.285,1.285,0,1,0-1.817-1.817l-.605.606-.606-.606a1.285,1.285,0,0,0-1.844,0Z" transform="translate(-4.269 -3.407)" fill="#fff"/>
    <path id="path1209" d="M21.079,31.107a1.285,1.285,0,0,0,.027,1.815l.606.606-.606.606a1.285,1.285,0,1,0,1.817,1.817l.605-.606.606.606a1.285,1.285,0,1,0,1.817-1.817l-.606-.605.606-.606a1.285,1.285,0,1,0-1.817-1.817l-.605.606-.606-.606a1.285,1.285,0,0,0-1.844,0Z" transform="translate(-1.971 -3.407)" fill="#fff"/>
  </g>
</svg>
