<svg xmlns="http://www.w3.org/2000/svg" xmlns:xlink="http://www.w3.org/1999/xlink" width="28" height="28" viewBox="0 0 28 28">
  <defs>
    <clipPath id="clip-path">
      <rect id="Rectangle_20" data-name="Rectangle 20" width="28" height="28" transform="translate(318 390)" fill="#fff"/>
    </clipPath>
  </defs>
  <g id="Mask_Group_15" data-name="Mask Group 15" transform="translate(-318 -390)" clip-path="url(#clip-path)">
    <g id="baseball-bat" transform="translate(318 390)">
      <g id="Group_54" data-name="Group 54">
        <circle id="Ellipse_8" data-name="Ellipse 8" cx="14" cy="14" r="14" fill="#fa4654"/>
        <circle id="Ellipse_9" data-name="Ellipse 9" cx="11" cy="11" r="11" transform="translate(3 3)" fill="#fb626e"/>
      </g>
      <g id="Group_64" data-name="Group 64">
        <g id="Group_59" data-name="Group 59">
          <g id="Group_55" data-name="Group 55">
            <path id="Path_147" data-name="Path 147" d="M21.175,7.629a2.013,2.013,0,1,1-4.026,0c0-.029,0-.058,0-.086a2.013,2.013,0,0,1,4.022,0C21.174,7.571,21.175,7.6,21.175,7.629Z" fill="#ebd9ea"/>
            <path id="Path_148" data-name="Path 148" d="M21.175,7.629a2.013,2.013,0,0,1-2.013,2.013V5.616a2.013,2.013,0,0,1,2.011,1.927c0,.029,0,.057,0,.086Z" fill="#f9f2f9"/>
          </g>
          <g id="Group_56" data-name="Group 56">
            <path id="Path_149" data-name="Path 149" d="M21.173,7.542a4.411,4.411,0,0,1-4.022,0,2.013,2.013,0,0,1,4.022,0Z" fill="#f9f2f9"/>
            <path id="Path_150" data-name="Path 150" d="M21.173,7.542a4.385,4.385,0,0,1-2.011.485V5.616a2.013,2.013,0,0,1,2.011,1.927Z" fill="#fff"/>
          </g>
          <g id="Group_57" data-name="Group 57">
            <path id="Path_151" data-name="Path 151" d="M21.175,7.629a2.005,2.005,0,0,1-.53,1.362,2.013,2.013,0,0,1,0-2.723,2,2,0,0,1,.529,1.275C21.174,7.571,21.175,7.6,21.175,7.629Z" fill="#ebd9ea"/>
            <path id="Path_152" data-name="Path 152" d="M18.189,7.92a2.01,2.01,0,0,1-.51,1.071,2.005,2.005,0,0,1-.53-1.362c0-.029,0-.058,0-.086a2,2,0,0,1,.529-1.275A2,2,0,0,1,18.2,7.484,2.032,2.032,0,0,1,18.189,7.92Z" fill="#c1b7d3"/>
          </g>
          <g id="Group_58" data-name="Group 58">
            <path id="Path_153" data-name="Path 153" d="M21.173,7.542a4.366,4.366,0,0,1-1.038.377,2.024,2.024,0,0,1-.016-.435,2,2,0,0,1,.525-1.217,2,2,0,0,1,.529,1.275Z" fill="#f9f2f9"/>
            <path id="Path_154" data-name="Path 154" d="M18.189,7.92a4.365,4.365,0,0,1-1.038-.377,2,2,0,0,1,.529-1.275A2,2,0,0,1,18.2,7.484a2.028,2.028,0,0,1-.016.435Z" fill="#ebd9ea"/>
          </g>
        </g>
        <g id="Group_61" data-name="Group 61">
          <path id="Path_155" data-name="Path 155" d="M20.722,8.9a1.971,1.971,0,0,1-.162.176c-.034-.036-.066-.075-.1-.113s.1.038.156,0-.011-.2.03-.146C20.672,8.844,20.7,8.873,20.722,8.9Z" fill="#e9465e"/>
          <path id="Path_156" data-name="Path 156" d="M20.373,8.747a.119.119,0,0,1-.1-.06c-.033-.058-.064-.118-.091-.179s.091.067.151.04.038-.2.066-.138.052.107.081.159a.119.119,0,0,1-.108.178Z" fill="#e9465e"/>
          <path id="Path_157" data-name="Path 157" d="M20.18,8.281a.119.119,0,0,1-.11-.088c-.018-.064-.032-.13-.044-.2s.073.083.138.072.085-.178.1-.113.023.117.039.174a.119.119,0,0,1-.119.15Z" fill="#e9465e"/>
          <g id="Group_60" data-name="Group 60">
            <path id="Path_158" data-name="Path 158" d="M20.109,7.782a.119.119,0,0,1-.114-.117c0-.038,0-.077,0-.115s0-.057.005-.086c.005-.066.049.1.115.1s.128-.151.123-.085c0,.025,0,.051,0,.077s0,.068,0,.1a.119.119,0,0,1-.117.121h-.006Z" fill="#ee6781"/>
            <path id="Path_159" data-name="Path 159" d="M20.165,7.28l-.023,0a.119.119,0,0,1-.088-.143c.016-.065.034-.13.056-.193s.022.108.084.129.162-.115.141-.053-.036.114-.05.171a.119.119,0,0,1-.12.091Z" fill="#ee6781"/>
            <path id="Path_160" data-name="Path 160" d="M20.342,6.808a.119.119,0,0,1-.1-.175c.031-.059.066-.117.1-.173s-.006.111.049.147.186-.071.15-.016-.063.1-.091.154a.119.119,0,0,1-.11.063Z" fill="#ee6781"/>
            <path id="Path_161" data-name="Path 161" d="M20.723,6.359a.118.118,0,0,1-.091.037.119.119,0,0,1-.083-.2l.012-.013A1.989,1.989,0,0,1,20.723,6.359Z" fill="#ee6781"/>
          </g>
        </g>
        <g id="Group_63" data-name="Group 63">
          <g id="Group_62" data-name="Group 62">
            <path id="Path_162" data-name="Path 162" d="M17.707,6.3c-.051.041.011.2-.03.146-.024-.03-.05-.06-.076-.089a1.994,1.994,0,0,1,.162-.176c.035.038.068.077.1.116S17.758,6.261,17.707,6.3Z" fill="#e9465e"/>
            <path id="Path_163" data-name="Path 163" d="M17.951,6.515a.119.119,0,0,1,.1.06c.033.058.064.118.091.179s-.091-.067-.151-.04-.038.2-.066.138-.052-.107-.081-.159a.119.119,0,0,1,.108-.178Z" fill="#e9465e"/>
            <path id="Path_164" data-name="Path 164" d="M18.145,6.981a.119.119,0,0,1,.11.088c.018.064.032.13.044.2s-.073-.083-.138-.072-.085.178-.1.113-.023-.117-.039-.174a.119.119,0,0,1,.083-.146.122.122,0,0,1,.036,0Z" fill="#e9465e"/>
            <path id="Path_165" data-name="Path 165" d="M18.215,7.481a.119.119,0,0,1,.114.117c0,.038,0,.077,0,.115s0,.057-.005.086c-.005.066-.049-.1-.115-.1s-.128.151-.123.085c0-.025,0-.051,0-.077s0-.068,0-.1a.119.119,0,0,1,.117-.121h.006Z" fill="#e9465e"/>
          </g>
          <path id="Path_166" data-name="Path 166" d="M18.16,7.982l.023,0a.119.119,0,0,1,.088.143c-.016.065-.034.13-.056.193s-.022-.108-.084-.129-.162.115-.141.053.036-.114.05-.171a.119.119,0,0,1,.12-.091Z" fill="#c0405c"/>
          <path id="Path_167" data-name="Path 167" d="M17.982,8.454a.119.119,0,0,1,.1.175c-.031.059-.066.117-.1.173s.006-.111-.049-.147-.186.071-.15.016.063-.1.091-.154a.119.119,0,0,1,.11-.063Z" fill="#c0405c"/>
          <path id="Path_168" data-name="Path 168" d="M17.775,9.066l-.011.011A1.992,1.992,0,0,1,17.6,8.9a.119.119,0,0,1,.172.164Z" fill="#c0405c"/>
        </g>
      </g>
      <g id="Group_70" data-name="Group 70">
        <g id="Group_65" data-name="Group 65">
          <path id="Path_169" data-name="Path 169" d="M5.126,8.751,11.115,15.1a15.176,15.176,0,0,1,1.824,2.36l.132.212a14.834,14.834,0,0,0,2.081,2.613l3.49,3.49-.9.9-3.49-3.49A14.8,14.8,0,0,0,11.644,19.1l-.212-.133a15.175,15.175,0,0,1-2.36-1.824L2.72,11.156a1.7,1.7,0,0,1-.037-2.442h0a1.7,1.7,0,0,1,2.442.036Z" fill="#c2aacf"/>
          <path id="Path_170" data-name="Path 170" d="M5.126,8.751,11.115,15.1a15.176,15.176,0,0,1,1.824,2.36l.132.212a14.834,14.834,0,0,0,2.081,2.613l3.49,3.49-.448.448L2.684,8.715h0a1.7,1.7,0,0,1,2.442.036Z" fill="#decee5"/>
          <path id="Path_171" data-name="Path 171" d="M9.646,15.023a.463.463,0,0,1-.655,0L3.818,9.849a.463.463,0,0,1,.655-.655l5.173,5.173a.463.463,0,0,1,0,.655Z" fill="#f4e6f4"/>
        </g>
        <g id="Group_68" data-name="Group 68">
          <path id="Path_172" data-name="Path 172" d="M13.071,17.674a14.834,14.834,0,0,0,2.081,2.613l3.49,3.49-.9.9-3.49-3.49A14.8,14.8,0,0,0,11.644,19.1Z" fill="#3e4e60"/>
          <path id="Path_173" data-name="Path 173" d="M13.071,17.674a14.834,14.834,0,0,0,2.081,2.613l3.49,3.49-.448.448-5.836-5.836Z" fill="#3f5d77"/>
          <g id="Group_66" data-name="Group 66">
            <path id="Path_174" data-name="Path 174" d="M13.071,17.674q.145.231.3.457L12.1,19.4q-.226-.153-.457-.3Z" fill="#334353"/>
            <path id="Path_175" data-name="Path 175" d="M17.369,23.765h1.266V24.3H17.369Z" transform="translate(-11.722 19.771) rotate(-45)" fill="#334353"/>
            <path id="Path_176" data-name="Path 176" d="M16.278,22.674h1.266v.534H16.278Z" transform="translate(-11.27 18.68) rotate(-45)" fill="#334353"/>
            <path id="Path_177" data-name="Path 177" d="M15.186,21.582h1.266v.534H15.186Z" transform="translate(-10.818 17.588) rotate(-45)" fill="#334353"/>
            <path id="Path_178" data-name="Path 178" d="M13.973,18.957q.166.211.339.416l-.969.969q-.2-.174-.416-.339Z" fill="#334353"/>
            <path id="Path_179" data-name="Path 179" d="M14.99,20.123c.053.055.108.11.162.165l.214.214-.9.9-.214-.214c-.054-.054-.109-.109-.165-.162Z" fill="#334353"/>
          </g>
          <g id="Group_67" data-name="Group 67">
            <path id="Path_180" data-name="Path 180" d="M13.071,17.674q.145.231.3.457l-.635.635-.378-.378Z" fill="#3e4e60"/>
            <path id="Path_181" data-name="Path 181" d="M17.91,23.541h.633v.534H17.91Z" transform="translate(-11.498 19.864) rotate(-45)" fill="#3e4e60"/>
            <path id="Path_182" data-name="Path 182" d="M16.818,22.45h.633v.534h-.633Z" transform="translate(-11.046 18.772) rotate(-45)" fill="#3e4e60"/>
            <path id="Path_183" data-name="Path 183" d="M15.726,21.358h.633v.534h-.633Z" transform="translate(-10.594 17.681) rotate(-45)" fill="#3e4e60"/>
            <path id="Path_184" data-name="Path 184" d="M13.973,18.957q.166.211.339.416l-.485.485-.378-.378Z" fill="#3e4e60"/>
            <path id="Path_185" data-name="Path 185" d="M14.99,20.123c.053.055.108.11.162.165l.214.214-.448.448-.378-.378Z" fill="#3e4e60"/>
          </g>
        </g>
        <g id="Group_69" data-name="Group 69">
          <path id="Path_186" data-name="Path 186" d="M19.761,23.67a.716.716,0,0,1,0,1.012l-1.109,1.109a.716.716,0,0,1-1.013,0,.7.7,0,0,1-.152-.225.716.716,0,0,1,.152-.788l1.109-1.109a.716.716,0,0,1,1.013,0Z" fill="#c2aacf"/>
          <path id="Path_187" data-name="Path 187" d="M19.536,23.518a.715.715,0,0,1-.152.787l-1.109,1.109a.716.716,0,0,1-.788.152.716.716,0,0,1,.152-.788l1.109-1.109a.716.716,0,0,1,.787-.152Z" fill="#decee5"/>
          <path id="Path_188" data-name="Path 188" d="M18.506,23.912l-.625.625a.343.343,0,0,0,.484.484l.625-.625a.343.343,0,0,0-.484-.484Z" fill="#f4e6f4"/>
        </g>
      </g>
      <g id="Group_73" data-name="Group 73">
        <g id="Group_71" data-name="Group 71">
          <path id="Path_189" data-name="Path 189" d="M13.969,7.71a.178.178,0,0,1-.142.209,4.126,4.126,0,0,0-3.283,4.816.178.178,0,1,1-.351.066A4.484,4.484,0,0,1,13.76,7.568a.178.178,0,0,1,.209.142Z" fill="#ff9fb4"/>
        </g>
        <g id="Group_72" data-name="Group 72">
          <path id="Path_190" data-name="Path 190" d="M16.328,6.737a.179.179,0,0,1-.224.2,5.161,5.161,0,0,0-6.357,3.57.178.178,0,1,1-.344-.1A5.519,5.519,0,0,1,16.2,6.6a.179.179,0,0,1,.127.139Z" fill="#ff9fb4"/>
        </g>
      </g>
      <g id="Group_74" data-name="Group 74">
        <path id="Path_191" data-name="Path 191" d="M14.79,14.325a.2.2,0,0,1-.2.2H11.868a.2.2,0,0,1,0-.4h2.723A.2.2,0,0,1,14.79,14.325Z" fill="#ff9fb4"/>
        <path id="Path_192" data-name="Path 192" d="M15.561,12.256a.2.2,0,0,1-.14.243l-2.631.7a.2.2,0,1,1-.1-.383l2.631-.7a.2.2,0,0,1,.243.14Z" fill="#ff9fb4"/>
      </g>
    </g>
  </g>
</svg>
