<svg xmlns="http://www.w3.org/2000/svg" xmlns:xlink="http://www.w3.org/1999/xlink" width="20" height="20" viewBox="0 0 20 20">
  <defs>
    <clipPath id="clip-path">
      <rect id="Rectangle_284" data-name="Rectangle 284" width="20" height="20" transform="translate(1146 109)" fill="#df1b1b"/>
    </clipPath>
  </defs>
  <g id="Mask_Group_24" data-name="Mask Group 24" transform="translate(-1146 -109)" clip-path="url(#clip-path)">
    <g id="Live_1_" transform="translate(1146 109)">
      <path id="Path_3584" data-name="Path 3584" d="M18.242,9.453H1.758A1.76,1.76,0,0,0,0,11.211v7.031A1.76,1.76,0,0,0,1.758,20H18.242A1.76,1.76,0,0,0,20,18.242V11.211A1.76,1.76,0,0,0,18.242,9.453Zm-12.93,8.2H2.969a.586.586,0,0,1-.586-.586V12.383a.586.586,0,1,1,1.172,0v4.1H5.312a.586.586,0,1,1,0,1.172Zm2.93-.586a.586.586,0,1,1-1.172,0V12.383a.586.586,0,1,1,1.172,0Zm4.67-4.546L11.74,17.212a.586.586,0,0,1-1.136,0L9.432,12.525a.586.586,0,1,1,1.136-.284l.6,2.414.6-2.414a.586.586,0,0,1,1.136.284Zm4.119,1.616a.586.586,0,1,1,0,1.172H15.273v1.172h1.758a.586.586,0,1,1,0,1.172H14.687a.586.586,0,0,1-.586-.586V12.383a.586.586,0,0,1,.586-.586h2.344a.586.586,0,1,1,0,1.172H15.273v1.172Z" fill="#df1b1b"/>
      <g id="Group_2121" data-name="Group 2121">
        <path id="Path_3585" data-name="Path 3585" d="M4.843,7.969a6.473,6.473,0,0,1,0-7.735.586.586,0,0,1,.937.7,5.294,5.294,0,0,0,0,6.327.586.586,0,1,1-.937.7Z" fill="#df1b1b"/>
      </g>
      <g id="Group_2122" data-name="Group 2122">
        <path id="Path_3586" data-name="Path 3586" d="M14.336,8.086a.587.587,0,0,1-.117-.821,5.294,5.294,0,0,0,0-6.327.586.586,0,1,1,.937-.7,6.473,6.473,0,0,1,0,7.735A.586.586,0,0,1,14.336,8.086Z" fill="#df1b1b"/>
      </g>
      <g id="Group_2123" data-name="Group 2123">
        <path id="Path_3587" data-name="Path 3587" d="M6.943,6.836a4.094,4.094,0,0,1,0-5.469.586.586,0,1,1,.873.782,2.925,2.925,0,0,0,0,3.906.586.586,0,1,1-.873.782Z" fill="#df1b1b"/>
      </g>
      <g id="Group_2124" data-name="Group 2124">
        <path id="Path_3588" data-name="Path 3588" d="M12.23,6.882a.586.586,0,0,1-.046-.827,2.925,2.925,0,0,0,0-3.906.586.586,0,1,1,.873-.782,4.094,4.094,0,0,1,0,5.469.586.586,0,0,1-.827.046Z" fill="#df1b1b"/>
      </g>
      <g id="Group_2125" data-name="Group 2125">
        <path id="Path_3589" data-name="Path 3589" d="M10,5.859A1.758,1.758,0,1,1,11.758,4.1,1.76,1.76,0,0,1,10,5.859Z" fill="#df1b1b"/>
      </g>
    </g>
  </g>
</svg>
