<svg xmlns="http://www.w3.org/2000/svg" xmlns:xlink="http://www.w3.org/1999/xlink" width="28" height="28" viewBox="0 0 28 28">
  <defs>
    <clipPath id="clip-path">
      <rect id="Rectangle_20" data-name="Rectangle 20" width="28" height="28" transform="translate(318 390)" fill="#fff"/>
    </clipPath>
  </defs>
  <g id="Mask_Group_16" data-name="Mask Group 16" transform="translate(-318 -390)" clip-path="url(#clip-path)">
    <g id="handball" transform="translate(316.688 388.688)">
      <circle id="Ellipse_10" data-name="Ellipse 10" cx="14" cy="14" r="14" transform="translate(1.313 1.313)" fill="#4da0dc"/>
      <path id="Path_193" data-name="Path 193" d="M8.2,20.937l0,0a9.125,9.125,0,0,0,1.477,1.477l6.841,6.841A14,14,0,0,0,29.26,16.479L22.2,9.418a9.052,9.052,0,0,0-5.784-3.1v0L16.332,6.3c-.094-.011-.188-.02-.284-.026l-.083-.009v0c-.214-.015-.433-.026-.652-.026-.109,0-.217,0-.324.009l0,0-.1.007-.118.007c-.083,0-.168.011-.252.02a8.9,8.9,0,0,0-1.332.217v0a.309.309,0,0,0-.048.013c-.193.046-.385.1-.573.16a.254.254,0,0,0-.088.015.383.383,0,0,0-.059.031s0,0,0,.007a9.088,9.088,0,0,0-5.171,4.452v0c-.009.015-.015.033-.024.05-.059.118-.116.236-.171.359-.018.035-.033.07-.048.1-.057.129-.109.258-.16.389-.009.024-.02.05-.031.074a9.147,9.147,0,0,0-.3.967c-.011.042-.02.083-.028.122-.028.125-.057.247-.081.372l-.026.151c-.02.12-.039.243-.055.363-.007.05-.013.1-.02.149-.015.133-.026.269-.035.4,0,.037-.007.074-.009.112-.011.175-.018.352-.018.529A9.016,9.016,0,0,0,8.2,20.937Z" opacity="0.1"/>
      <circle id="Ellipse_11" data-name="Ellipse 11" cx="9.067" cy="9.067" r="9.067" transform="translate(4.907 7.814) rotate(-9.208)" fill="#de594e"/>
      <path id="Path_194" data-name="Path 194" d="M24.308,16.473A9.069,9.069,0,1,1,7.246,11.168a9.071,9.071,0,0,0,17.062,5.305Z" fill="#cd5248"/>
      <g id="Group_75" data-name="Group 75">
        <path id="Path_195" data-name="Path 195" d="M15.05,24.378c-.233-.009-.466-.024-.694-.048A13.909,13.909,0,0,1,14.3,6.3q.343-.04.692-.053A13.412,13.412,0,0,0,15.05,24.378Z" fill="#ededed"/>
        <path id="Path_196" data-name="Path 196" d="M12.841,24.037a.2.2,0,0,1,.081,0c-.147-.051-.3-.105-.446-.162a.39.39,0,0,1-.235-.347.159.159,0,0,1,.215-.162c-.145-.059-.29-.121-.433-.184a.39.39,0,0,1-.215-.336v-.022a.161.161,0,0,1,.224-.152q-.211-.1-.422-.2a.385.385,0,0,1-.193-.369.161.161,0,0,1,.233-.136c-.136-.072-.274-.149-.408-.226a.379.379,0,0,1-.171-.375.16.16,0,0,1,.239-.125c-.134-.079-.266-.162-.4-.246a.382.382,0,0,1-.152-.384.162.162,0,0,1,.246-.112c-.127-.086-.255-.173-.38-.266a.372.372,0,0,1-.13-.389.162.162,0,0,1,.25-.1c-.121-.092-.244-.187-.365-.285a.372.372,0,0,1-.108-.393.162.162,0,0,1,.257-.086q-.178-.148-.349-.3a.37.37,0,0,1-.086-.4.161.161,0,0,1,.259-.07c-.112-.1-.224-.211-.334-.321a.374.374,0,0,1-.064-.4.163.163,0,0,1,.263-.057c-.105-.11-.211-.222-.314-.338a.368.368,0,0,1-.044-.4.161.161,0,0,1,.266-.042c-.1-.116-.2-.235-.3-.354a.37.37,0,0,1-.022-.406.161.161,0,0,1,.268-.029c-.094-.121-.187-.244-.279-.369a.365.365,0,0,1,0-.406.161.161,0,0,1,.268-.015c-.088-.125-.173-.253-.259-.382a.37.37,0,0,1,.022-.406.163.163,0,0,1,.27,0c-.081-.13-.16-.261-.239-.4a.372.372,0,0,1,.044-.4.161.161,0,0,1,.268.015c-.072-.134-.145-.27-.215-.408a.37.37,0,0,1,.064-.4.162.162,0,0,1,.268.031c-.068-.138-.132-.279-.2-.422a.375.375,0,0,1,.086-.4.163.163,0,0,1,.266.044c-.059-.141-.116-.285-.171-.43a.373.373,0,0,1,.108-.4.16.16,0,0,1,.261.057c-.05-.145-.1-.292-.147-.439a.378.378,0,0,1,.127-.391.163.163,0,0,1,.261.072c-.044-.149-.086-.3-.125-.45a.375.375,0,0,1,.149-.382.162.162,0,0,1,.257.086c-.035-.152-.068-.3-.1-.457a.375.375,0,0,1,.169-.375.162.162,0,0,1,.253.1c-.029-.154-.053-.307-.075-.463a.38.38,0,0,1,.193-.367.159.159,0,0,1,.244.112c-.018-.156-.033-.31-.046-.468a.386.386,0,0,1,.215-.358.158.158,0,0,1,.237.125c-.009-.156-.015-.314-.02-.472a.4.4,0,0,1,.178-.318.38.38,0,0,1,.059-.031.253.253,0,0,1,.086-.015.163.163,0,0,1,.145.154c0-.066,0-.132,0-.2.156-.048.314-.092.474-.13,0,.086,0,.171,0,.255a.382.382,0,0,1-.235.332.16.16,0,0,1-.231-.138c0,.156,0,.312.011.466a.374.374,0,0,1-.213.34.163.163,0,0,1-.239-.125q.016.234.04.461a.365.365,0,0,1-.193.349.16.16,0,0,1-.244-.11c.018.154.042.305.066.457a.362.362,0,0,1-.173.356.162.162,0,0,1-.25-.1c.029.152.059.3.092.45a.365.365,0,0,1-.154.365.162.162,0,0,1-.255-.083c.035.149.075.3.116.444a.36.36,0,0,1-.132.371.164.164,0,0,1-.261-.07c.046.147.092.292.143.437a.362.362,0,0,1-.112.375.163.163,0,0,1-.264-.057q.079.217.165.428a.356.356,0,0,1-.09.38.166.166,0,0,1-.268-.042c.061.141.123.279.189.417a.364.364,0,0,1-.07.384.165.165,0,0,1-.268-.029c.066.138.136.272.209.406a.356.356,0,0,1-.051.386.163.163,0,0,1-.268-.013c.075.132.152.263.228.393a.353.353,0,0,1-.029.389.165.165,0,0,1-.27,0c.083.13.167.257.25.38a.352.352,0,0,1-.009.391.164.164,0,0,1-.268.015c.088.125.178.246.27.367a.352.352,0,0,1,.011.389.164.164,0,0,1-.268.031c.1.119.191.235.29.351a.357.357,0,0,1,.033.389.165.165,0,0,1-.266.044c.1.114.2.226.305.334a.356.356,0,0,1,.053.389.162.162,0,0,1-.261.057c.105.11.213.215.323.318a.361.361,0,0,1,.075.384.165.165,0,0,1-.261.072c.114.1.226.2.343.3a.355.355,0,0,1,.092.38.164.164,0,0,1-.255.086q.178.145.356.283a.355.355,0,0,1,.114.375.165.165,0,0,1-.25.1c.123.09.248.178.373.266a.36.36,0,0,1,.134.369.162.162,0,0,1-.244.112c.127.086.255.167.384.248a.359.359,0,0,1,.156.362.164.164,0,0,1-.237.127c.132.077.266.152.4.226a.367.367,0,0,1,.176.356.164.164,0,0,1-.233.138c.138.07.274.141.413.206a.375.375,0,0,1,.2.347.162.162,0,0,1-.224.152c.141.064.283.125.424.184a.375.375,0,0,1,.217.34.162.162,0,0,1-.215.162c.145.057.292.112.437.162a.382.382,0,0,1,.237.329.159.159,0,0,1-.2.173l.215.072C13.115,24.114,12.977,24.077,12.841,24.037Z" fill="#ededed"/>
        <path id="Path_197" data-name="Path 197" d="M16.012,24.354a.181.181,0,0,1,.149-.077c-.143-.015-.285-.031-.43-.051a.305.305,0,0,1-.255-.266.172.172,0,0,1,.187-.193c-.141-.02-.283-.044-.426-.07A.3.3,0,0,1,15,23.42a.172.172,0,0,1,.2-.182c-.141-.029-.279-.059-.419-.092a.3.3,0,0,1-.217-.288.175.175,0,0,1,.209-.171c-.138-.035-.274-.072-.411-.112a.293.293,0,0,1-.2-.3.175.175,0,0,1,.215-.16c-.134-.042-.268-.086-.4-.134a.291.291,0,0,1-.184-.264.242.242,0,0,1,0-.04.176.176,0,0,1,.224-.149c-.132-.048-.261-.1-.393-.154a.282.282,0,0,1-.163-.312.175.175,0,0,1,.233-.134c-.13-.055-.257-.114-.384-.173a.285.285,0,0,1-.145-.318.177.177,0,0,1,.239-.123c-.123-.061-.248-.125-.371-.193a.28.28,0,0,1-.127-.325.176.176,0,0,1,.246-.108c-.121-.068-.242-.138-.36-.213a.275.275,0,0,1-.11-.329.18.18,0,0,1,.253-.1c-.119-.072-.235-.149-.349-.228a.278.278,0,0,1-.092-.334.179.179,0,0,1,.257-.083c-.112-.079-.224-.163-.336-.246a.277.277,0,0,1-.072-.338.179.179,0,0,1,.261-.068c-.11-.086-.217-.173-.323-.266a.277.277,0,0,1-.055-.34.179.179,0,0,1,.263-.055c-.1-.09-.206-.184-.307-.279a.276.276,0,0,1-.035-.345.179.179,0,0,1,.266-.04c-.1-.1-.2-.2-.292-.3a.275.275,0,0,1-.02-.345.179.179,0,0,1,.268-.024c-.092-.1-.184-.206-.277-.312a.274.274,0,0,1,0-.345.179.179,0,0,1,.27-.011c-.088-.108-.176-.215-.261-.327a.275.275,0,0,1,.02-.343.178.178,0,0,1,.268,0c-.081-.112-.162-.224-.242-.338a.278.278,0,0,1,.035-.345.18.18,0,0,1,.27.018c-.077-.114-.152-.233-.226-.351a.277.277,0,0,1,.055-.34.179.179,0,0,1,.268.031c-.07-.119-.138-.242-.2-.365a.271.271,0,0,1,.072-.338.177.177,0,0,1,.263.046q-.1-.184-.184-.375a.277.277,0,0,1,.09-.334.178.178,0,0,1,.264.059c-.057-.125-.112-.255-.165-.384a.277.277,0,0,1,.108-.329.177.177,0,0,1,.259.072c-.05-.13-.1-.261-.143-.393a.279.279,0,0,1,.125-.325.176.176,0,0,1,.255.088c-.042-.134-.083-.268-.121-.4a.279.279,0,0,1,.145-.318.18.18,0,0,1,.25.1q-.056-.2-.1-.408a.282.282,0,0,1,.162-.312.175.175,0,0,1,.244.114c-.029-.138-.053-.277-.077-.417a.29.29,0,0,1,.182-.3.175.175,0,0,1,.237.127c-.02-.138-.037-.279-.051-.422a.289.289,0,0,1,.2-.294.172.172,0,0,1,.228.138c-.011-.138-.02-.281-.026-.424a.3.3,0,0,1,.217-.285A.173.173,0,0,1,15,7.571q0-.211,0-.428a.3.3,0,0,1,.237-.277.175.175,0,0,1,.213.165c0-.141.013-.285.024-.428a.31.31,0,0,1,.255-.266.173.173,0,0,1,.2.176c.007-.081.018-.162.029-.244.152.009.3.024.45.042-.013.081-.022.162-.033.242a.291.291,0,0,1-.248.248.175.175,0,0,1-.2-.176c-.013.143-.024.283-.031.424a.291.291,0,0,1-.233.259.177.177,0,0,1-.213-.165c0,.141-.007.281,0,.422a.283.283,0,0,1-.215.268.177.177,0,0,1-.222-.152c0,.141.011.281.022.419a.281.281,0,0,1-.2.279.18.18,0,0,1-.231-.141q.02.211.046.415a.275.275,0,0,1-.18.288.183.183,0,0,1-.239-.127c.022.138.046.274.07.411a.27.27,0,0,1-.162.294A.182.182,0,0,1,13.9,9.4c.029.136.059.27.094.4a.269.269,0,0,1-.147.3.181.181,0,0,1-.25-.1c.037.134.077.268.116.4a.264.264,0,0,1-.127.307.18.18,0,0,1-.255-.086q.066.2.138.389a.262.262,0,0,1-.112.312.181.181,0,0,1-.259-.072c.051.13.1.257.158.38a.264.264,0,0,1-.092.318.183.183,0,0,1-.263-.059c.057.125.119.248.18.371a.262.262,0,0,1-.077.321.184.184,0,0,1-.266-.044c.064.121.132.242.2.358a.265.265,0,0,1-.059.325.183.183,0,0,1-.268-.031q.105.178.217.349a.257.257,0,0,1-.042.325.183.183,0,0,1-.268-.015c.077.114.156.226.235.336a.262.262,0,0,1-.024.327.183.183,0,0,1-.27,0c.083.11.169.217.255.323a.258.258,0,0,1-.009.327.181.181,0,0,1-.268.013c.088.105.178.209.27.307a.264.264,0,0,1,.009.329.182.182,0,0,1-.268.026c.094.1.189.2.285.294a.259.259,0,0,1,.029.327.185.185,0,0,1-.266.042c.1.094.2.187.3.277a.263.263,0,0,1,.046.327.182.182,0,0,1-.264.055c.1.09.209.178.314.261a.263.263,0,0,1,.061.325.181.181,0,0,1-.259.068c.108.083.217.167.327.246a.259.259,0,0,1,.079.321.181.181,0,0,1-.255.083c.112.077.226.154.34.228a.262.262,0,0,1,.1.316.182.182,0,0,1-.253.1c.119.072.237.143.354.209a.265.265,0,0,1,.114.312.183.183,0,0,1-.246.112c.121.066.244.13.365.191a.264.264,0,0,1,.132.305.181.181,0,0,1-.239.125q.188.089.375.171a.271.271,0,0,1,.147.3.181.181,0,0,1-.233.136c.13.055.257.105.386.154a.272.272,0,0,1,.165.294.179.179,0,0,1-.224.147c.13.048.261.092.393.134a.276.276,0,0,1,.182.285.177.177,0,0,1-.215.16c.134.042.268.079.4.114a.281.281,0,0,1,.2.277.179.179,0,0,1-.206.173c.136.033.274.066.411.094a.279.279,0,0,1,.215.266.175.175,0,0,1-.2.184c.138.026.279.051.417.072a.287.287,0,0,1,.233.257.174.174,0,0,1-.18.2c.138.02.279.037.417.053a.294.294,0,0,1,.253.246.173.173,0,0,1-.173.2l.242.02C16.35,24.323,16.181,24.341,16.012,24.354Z" fill="#ededed"/>
      </g>
    </g>
  </g>
</svg>
