<svg xmlns="http://www.w3.org/2000/svg" xmlns:xlink="http://www.w3.org/1999/xlink" width="28" height="28" viewBox="0 0 28 28">
  <defs>
    <clipPath id="clip-path">
      <rect id="Rectangle_20" data-name="Rectangle 20" width="28" height="28" transform="translate(318 390)" fill="#fff"/>
    </clipPath>
  </defs>
  <g id="Mask_Group_12" data-name="Mask Group 12" transform="translate(-318 -390)" clip-path="url(#clip-path)">
    <g id="Page-1" transform="translate(318 390)">
      <g id="_019---Cricket-Ball" data-name="019---Cricket-Ball">
        <path id="Shape" d="M27.533,15.4A13.5,13.5,0,0,1,14,27.533,13.5,13.5,0,0,1,.467,15.4C1.076,18.6,6.9,21.111,14,21.111S26.924,18.6,27.533,15.4Z" fill="#f44335"/>
        <path id="Shape-2" data-name="Shape" d="M27.533,12.237c-.861,2.835-6.595,5.03-13.533,5.03S1.328,15.072.467,12.237a13.665,13.665,0,0,1,27.067,0Z" fill="#f44335"/>
        <path id="Shape-3" data-name="Shape" d="M27.533,12.174v2.468a2.847,2.847,0,0,1-.056.56.007.007,0,0,1,0,.009C26.871,18.458,21.07,21,14,21S1.129,18.458.523,15.211a.007.007,0,0,1,0-.009,2.847,2.847,0,0,1-.056-.56V12.174a.047.047,0,0,1,.089-.014.59.59,0,0,0,.028.084C1.437,15.076,7.121,17.268,14,17.268s12.563-2.192,13.417-5.024a.59.59,0,0,0,.028-.084.047.047,0,0,1,.089.014Z" fill="#ff9801"/>
        <path id="Shape-4" data-name="Shape" d="M27.446,12.16a.6.6,0,0,1-.028.084,3.974,3.974,0,0,1-1.262,1.805v.592a2.893,2.893,0,0,1-.055.56.007.007,0,0,1,0,.009c-.577,3.139-5.929,5.619-12.568,5.78q.342.009.689.009c6.954,0,12.66-2.542,13.256-5.789a.007.007,0,0,0,0-.009,2.892,2.892,0,0,0,.055-.56V12.174a.046.046,0,0,0-.038-.04.046.046,0,0,0-.049.026Z" fill="#f57c00"/>
        <path id="Shape-5" data-name="Shape" d="M3.743,8.4a.481.481,0,0,1-.413-.229.443.443,0,0,1,0-.458,12.377,12.377,0,0,1,8.725-5.841.475.475,0,0,1,.538.378.46.46,0,0,1-.38.526A11.43,11.43,0,0,0,4.157,8.167.48.48,0,0,1,3.743,8.4Z" fill="#f5f5f5"/>
        <circle id="Oval" cx="0.467" cy="0.467" r="0.467" transform="translate(13.533 1.867)" fill="#f5f5f5"/>
        <g id="Group_43" data-name="Group 43">
          <path id="Shape-6" data-name="Shape" d="M27.878,12.183a14,14,0,0,0-27.756,0V12.2A14.083,14.083,0,0,0,0,14a13.914,13.914,0,0,0,1.342,5.974.03.03,0,0,0,0,.011,14,14,0,0,0,25.307,0,.029.029,0,0,1,0-.011A13.912,13.912,0,0,0,28,14a14.083,14.083,0,0,0-.12-1.8ZM27.067,14c0,.393-.021.781-.055,1.167C26.4,18.178,20.7,20.534,14,20.534S1.6,18.178.988,15.167C.954,14.781.933,14.393.933,14c0-.073,0-.144.006-.217,2.017,2.355,7.091,3.95,13.061,3.95s11.044-1.6,13.061-3.95c0,.072.006.144.006.217ZM14,.933A13.089,13.089,0,0,1,26.616,10.6a6.268,6.268,0,0,1-2.126,1.981.467.467,0,1,0,.486.8,8.073,8.073,0,0,0,1.9-1.563q.032.187.058.373C26.047,14.783,20.408,16.8,14,16.8S1.953,14.783,1.061,12.193q.026-.187.057-.373a8.1,8.1,0,0,0,1.9,1.561.467.467,0,1,0,.486-.8A6.23,6.23,0,0,1,1.384,10.6,13.088,13.088,0,0,1,14,.933Zm0,26.134A13.067,13.067,0,0,1,2.987,21.02c.068.035.133.07.2.1a.467.467,0,0,0,.415-.836,12.516,12.516,0,0,1-1.487-.861,12.979,12.979,0,0,1-.64-1.7c2.3,2.239,7.046,3.74,12.523,3.74s10.223-1.5,12.522-3.74a12.979,12.979,0,0,1-.64,1.7,12.516,12.516,0,0,1-1.487.861.467.467,0,0,0,.415.836c.07-.035.135-.07.2-.1A13.067,13.067,0,0,1,14,27.067Z"/>
          <path id="Shape-7" data-name="Shape" d="M22.715,21.021a22.24,22.24,0,0,1-2.287.583.405.405,0,0,0-.35.484.475.475,0,0,0,.562.3,23.22,23.22,0,0,0,2.4-.611.389.389,0,0,0,.268-.514.491.491,0,0,0-.589-.244Z"/>
          <path id="Shape-8" data-name="Shape" d="M12.612,22.236a23.263,23.263,0,0,1-2.745-.3.434.434,0,0,0-.433.2.631.631,0,0,0-.067.544.488.488,0,0,0,.365.341,24.251,24.251,0,0,0,2.838.307h.021a.508.508,0,0,0,.475-.537.517.517,0,0,0-.455-.561Z"/>
          <path id="Shape-9" data-name="Shape" d="M7.574,21.608a22.065,22.065,0,0,1-2.272-.58.525.525,0,0,0-.466.064.373.373,0,0,0-.162.382.425.425,0,0,0,.309.308,23.035,23.035,0,0,0,2.379.608.514.514,0,0,0,.445-.117.362.362,0,0,0,.106-.391.444.444,0,0,0-.34-.274Z"/>
          <path id="Shape-10" data-name="Shape" d="M18.134,21.938a23.27,23.27,0,0,1-2.746.3.462.462,0,0,0-.4.285.636.636,0,0,0,.01.549.454.454,0,0,0,.408.264h.021a24.246,24.246,0,0,0,2.839-.307.543.543,0,0,0,.393-.623.484.484,0,0,0-.528-.464Z"/>
          <path id="Shape-11" data-name="Shape" d="M4.936,14.506a14.986,14.986,0,0,0,2.413.878.45.45,0,0,0,.115.015.484.484,0,0,0,.465-.447.509.509,0,0,0-.351-.557,14.082,14.082,0,0,1-2.268-.825.455.455,0,0,0-.605.27.529.529,0,0,0,.234.665Z"/>
          <path id="Shape-12" data-name="Shape" d="M15.409,15.865h.02a22.944,22.944,0,0,0,2.842-.316.487.487,0,0,0,.364-.34.62.62,0,0,0-.07-.538.434.434,0,0,0-.433-.2,22.182,22.182,0,0,1-2.742.3.514.514,0,0,0-.456.556.506.506,0,0,0,.475.533Z"/>
          <path id="Shape-13" data-name="Shape" d="M20.534,15.4a.449.449,0,0,0,.115-.015,14.965,14.965,0,0,0,2.412-.878.529.529,0,0,0,.233-.665.455.455,0,0,0-.6-.27,14.061,14.061,0,0,1-2.269.825.509.509,0,0,0-.351.557.484.484,0,0,0,.464.448Z"/>
          <path id="Shape-14" data-name="Shape" d="M9.73,15.551a22.944,22.944,0,0,0,2.842.316h.02a.506.506,0,0,0,.475-.533.514.514,0,0,0-.456-.556,22.182,22.182,0,0,1-2.742-.3.434.434,0,0,0-.433.2.62.62,0,0,0-.07.538.487.487,0,0,0,.364.34Z"/>
        </g>
      </g>
    </g>
  </g>
</svg>
