<svg xmlns="http://www.w3.org/2000/svg" xmlns:xlink="http://www.w3.org/1999/xlink" width="20" height="20" viewBox="0 0 20 20">
  <defs>
    <clipPath id="clip-path">
      <rect id="Rectangle_286" data-name="Rectangle 286" width="20" height="20" transform="translate(820 109)" fill="#df1b1b"/>
    </clipPath>
  </defs>
  <g id="Mask_Group_26" data-name="Mask Group 26" transform="translate(-820 -109)" clip-path="url(#clip-path)">
    <g id="_SOLID" data-name="/ SOLID" transform="translate(818.596 107.947)">
      <path id="Path_3595" data-name="Path 3595" d="M9.123,4.912v-.7h-.7v.7Z" fill="#df1b1b"/>
      <circle id="Ellipse_891" data-name="Ellipse 891" cx="0.351" cy="0.351" r="0.351" transform="translate(10.175 13.684)" fill="#df1b1b"/>
      <path id="Path_3596" data-name="Path 3596" d="M3.509,17.193V12.862a1.046,1.046,0,0,1,.308-.744l1.2-1.2a.642.642,0,1,0-.907-.907l-1.9,1.9a.348.348,0,0,0-.1.248v2.988a1.743,1.743,0,0,1-.514,1.241l-.188.188v4.476H1.96l1.591-1.591a1.743,1.743,0,0,1,1.241-.514h.592a1.046,1.046,0,0,0,.744-.308l.393-.393H4.561A1.054,1.054,0,0,1,3.509,17.193Z" fill="#df1b1b"/>
      <path id="Path_3597" data-name="Path 3597" d="M5.511,9.516a1.366,1.366,0,0,1,.1.116V6.316h7.719V1.754a.351.351,0,0,0-.351-.351h-1.13L11.7,2.01a1.051,1.051,0,0,1-1.021.8H6.864a1.051,1.051,0,0,1-1.021-.8L5.691,1.4H4.561a.351.351,0,0,0-.351.351V9.17a1.344,1.344,0,0,1,1.3.346Zm5.015-5.306a.7.7,0,0,1,.7-.7h.7a.7.7,0,0,1,.7.7v.7a.7.7,0,0,1-.7.7h-.7a.7.7,0,0,1-.7-.7Zm-2.807,0a.7.7,0,0,1,.7-.7h.7a.7.7,0,0,1,.7.7v.7a.7.7,0,0,1-.7.7h-.7a.7.7,0,0,1-.7-.7Zm-2.807,0a.7.7,0,0,1,.7-.7h.7a.7.7,0,0,1,.7.7v.7a.7.7,0,0,1-.7.7h-.7a.7.7,0,0,1-.7-.7Z" fill="#df1b1b"/>
      <path id="Path_3598" data-name="Path 3598" d="M5.511,11.416l-1.2,1.2a.349.349,0,0,0-.1.248v4.331a.351.351,0,0,0,.351.351h1.9a7.672,7.672,0,0,1-.845-3.509V11.3A1.364,1.364,0,0,1,5.511,11.416Z" fill="#df1b1b"/>
      <path id="Path_3599" data-name="Path 3599" d="M14.035,7.018H6.316v7.018a7.025,7.025,0,0,0,7.018,7.018h.7a7.018,7.018,0,0,0,0-14.035Zm-.351.7a4.9,4.9,0,0,1,3.28,1.255L16.5,9.5a4.211,4.211,0,0,0-5.622,0L10.4,8.974a4.9,4.9,0,0,1,3.28-1.255Zm0,2.105a2.807,2.807,0,0,0-1.823.672l-.456-.533a3.509,3.509,0,0,1,4.557,0l-.456.533a2.807,2.807,0,0,0-1.823-.672Zm1.263,1.123-.421.561a1.4,1.4,0,0,0-1.684,0l-.421-.561A2.106,2.106,0,0,1,14.948,10.947Zm4.562,5.669a1.468,1.468,0,0,1-2.563,1.129l-1.2-1.37a2.742,2.742,0,0,0-4.127,0l-1.2,1.369a1.468,1.468,0,0,1-2.563-1.128l.425-3.827a1.753,1.753,0,0,1,1.744-1.561h.751a1.759,1.759,0,0,1,1.72,1.41l.012.062a.352.352,0,0,0,.344.282h1.656a.352.352,0,0,0,.344-.282l.012-.062a1.759,1.759,0,0,1,1.72-1.41h.751a1.753,1.753,0,0,1,1.744,1.561Z" fill="#df1b1b"/>
      <path id="Path_3600" data-name="Path 3600" d="M11.93,4.912v-.7h-.7v.7Z" fill="#df1b1b"/>
      <path id="Path_3601" data-name="Path 3601" d="M17.34,11.93h-.751a1.055,1.055,0,0,0-1.032.846l-.012.062a1.055,1.055,0,0,1-1.032.846H12.856a1.055,1.055,0,0,1-1.032-.846l-.012-.062a1.056,1.056,0,0,0-1.032-.846h-.751a1.052,1.052,0,0,0-1.046.936l-.425,3.827a.766.766,0,0,0,1.338.589l1.2-1.369a3.444,3.444,0,0,1,5.184,0l1.2,1.369a.766.766,0,0,0,1.338-.589l-.425-3.827a1.052,1.052,0,0,0-1.046-.936Zm-6.814,3.158a1.053,1.053,0,1,1,1.053-1.053,1.053,1.053,0,0,1-1.053,1.053Zm7.368-.7h-.7v.7h-.7v-.7h-.7v-.7h.7v-.7h.7v.7h.7Z" fill="#df1b1b"/>
      <path id="Path_3602" data-name="Path 3602" d="M6.316,4.912v-.7h-.7v.7Z" fill="#df1b1b"/>
      <path id="Path_3603" data-name="Path 3603" d="M6.864,2.105H10.68a.35.35,0,0,0,.34-.266L11.13,1.4H6.414l.109.436a.35.35,0,0,0,.34.266Z" fill="#df1b1b"/>
      <path id="Path_3604" data-name="Path 3604" d="M16.491,1.053h.7V2.105h-.7Z" fill="#df1b1b"/>
      <path id="Path_3605" data-name="Path 3605" d="M15.439,2.105h1.053v.7H15.439Z" fill="#df1b1b"/>
      <path id="Path_3606" data-name="Path 3606" d="M16.491,2.807h.7V3.86h-.7Z" fill="#df1b1b"/>
      <path id="Path_3607" data-name="Path 3607" d="M17.193,2.105h1.053v.7H17.193Z" fill="#df1b1b"/>
      <path id="Path_3608" data-name="Path 3608" d="M19.649,3.86h.7V4.912h-.7Z" fill="#df1b1b"/>
      <path id="Path_3609" data-name="Path 3609" d="M18.6,4.912h1.053v.7H18.6Z" fill="#df1b1b"/>
      <path id="Path_3610" data-name="Path 3610" d="M19.649,5.614h.7V6.667h-.7Z" fill="#df1b1b"/>
      <path id="Path_3611" data-name="Path 3611" d="M20.351,4.912H21.4v.7H20.351Z" fill="#df1b1b"/>
    </g>
  </g>
</svg>
