<svg xmlns="http://www.w3.org/2000/svg" xmlns:xlink="http://www.w3.org/1999/xlink" width="28" height="28" viewBox="0 0 28 28">
  <defs>
    <clipPath id="clip-path">
      <rect id="Rectangle_20" data-name="Rectangle 20" width="28" height="28" transform="translate(318 390)" fill="#fff"/>
    </clipPath>
  </defs>
  <g id="Mask_Group_17" data-name="Mask Group 17" transform="translate(-318 -390)" clip-path="url(#clip-path)">
    <g id="rugby" transform="translate(318 390)">
      <path id="Path_198" data-name="Path 198" d="M28,14a14.063,14.063,0,0,1-.326,3.021h0a14.01,14.01,0,0,1-5.594,8.413h0a13.929,13.929,0,0,1-4.393,2.075h0A14,14,0,1,1,28,14Z" fill="#74baa7"/>
      <path id="Path_199" data-name="Path 199" d="M27.674,17.021A14.022,14.022,0,0,1,17.686,27.51h0c-.2-.057-.407-.118-.61-.182A21.507,21.507,0,0,1,3.049,13.3a21.559,21.559,0,0,1-.986-6.62c0-.651.039-1.3.1-1.951A3.172,3.172,0,0,1,5.009,1.889q1.07-.105,2.146-.1a21.556,21.556,0,0,1,6.423.988A21.507,21.507,0,0,1,27.605,16.8c.023.074.046.148.069.222Z" fill="#d66d22"/>
      <path id="Path_200" data-name="Path 200" d="M22.079,25.434h0a13.93,13.93,0,0,1-4.393,2.075h0c-.2-.057-.407-.118-.61-.182A21.507,21.507,0,0,1,3.049,13.3a21.559,21.559,0,0,1-.986-6.62c0-.651.039-1.3.1-1.951A3.167,3.167,0,0,1,3.079,2.8a1.071,1.071,0,0,0-.088,1.1q.16.5.357,1.009a25.383,25.383,0,0,0,1.12,2.494c.474.925,1.022,1.875,1.638,2.837A46.831,46.831,0,0,0,12.4,17.977a46.834,46.834,0,0,0,7.731,6.294q.984.63,1.947,1.163Z" fill="#bb5a18"/>
      <path id="Path_201" data-name="Path 201" d="M13.579,2.772a21.457,21.457,0,0,0-3.667-.807A70.825,70.825,0,0,0,4.386,7.247q-1.1,1.168-2.144,2.388A21.457,21.457,0,0,0,3.049,13.3q1.382-1.726,2.869-3.353a67.775,67.775,0,0,1,7.661-7.177ZM27.605,16.8a67.744,67.744,0,0,1-7.178,7.66q-1.626,1.486-3.352,2.87c.2.063.406.125.61.182h0a13.929,13.929,0,0,0,4.393-2.075h0a14.01,14.01,0,0,0,5.594-8.413h0c-.022-.074-.045-.148-.069-.222Z" fill="#e4e4e4"/>
      <path id="Path_202" data-name="Path 202" d="M5.918,9.949Q4.432,11.575,3.049,13.3a21.455,21.455,0,0,1-.807-3.667Q3.288,8.417,4.386,7.247l.082.161c.425.83.91,1.68,1.45,2.54Z" fill="#d3d2d2"/>
      <path id="Path_203" data-name="Path 203" d="M22.079,25.435a13.932,13.932,0,0,1-4.393,2.075c-.2-.057-.407-.118-.61-.182q1.725-1.383,3.352-2.87Q21.261,24.982,22.079,25.435Z" fill="#d3d2d2"/>
      <path id="Path_204" data-name="Path 204" d="M24.145,18.319q-.378-.771-.807-1.513l1.108-.687-.578-.932-1.1.682a25.667,25.667,0,0,0-1.881-2.585l.952-.822-.716-.83-.952.822a25.861,25.861,0,0,0-1.888-1.888l.822-.952-.83-.716-.822.952a25.663,25.663,0,0,0-2.585-1.881l.682-1.1-.932-.578L13.931,7.4q-.742-.428-1.513-.807l-.482.985q.722.354,1.417.755l-.634,1.023.932.578L14.29,8.9a24.564,24.564,0,0,1,2.446,1.779l-.9,1.048.83.716.9-1.048a24.753,24.753,0,0,1,1.774,1.774l-1.048.9.716.83,1.048-.9a24.565,24.565,0,0,1,1.779,2.446l-1.032.64.578.932,1.023-.634q.4.7.755,1.417Z" fill="#444562"/>
    </g>
  </g>
</svg>
