<svg xmlns="http://www.w3.org/2000/svg" xmlns:xlink="http://www.w3.org/1999/xlink" width="28" height="28" viewBox="0 0 28 28">
  <defs>
    <clipPath id="clip-path">
      <rect id="Rectangle_20" data-name="Rectangle 20" width="28" height="28" transform="translate(318 390)" fill="#fff"/>
    </clipPath>
  </defs>
  <g id="Mask_Group_18" data-name="Mask Group 18" transform="translate(-318 -390)" clip-path="url(#clip-path)">
    <g id="rugby-players" transform="translate(318 390)">
      <path id="Path_205" data-name="Path 205" d="M28,14a14.017,14.017,0,1,1-.2-2.361A14,14,0,0,1,28,14Z" fill="#04d481"/>
      <path id="Path_206" data-name="Path 206" d="M27.8,11.639H.2A13.877,13.877,0,0,1,.579,10H27.421a13.877,13.877,0,0,1,.381,1.637Z" fill="#e7ecf1"/>
      <path id="Path_207" data-name="Path 207" d="M23.8,4H4.2A14.135,14.135,0,0,1,5.526,2.855H22.474A14.135,14.135,0,0,1,23.8,4Z" fill="#e7ecf1"/>
      <g id="Group_79" data-name="Group 79">
        <path id="Path_208" data-name="Path 208" d="M23.378,24.394a14.021,14.021,0,0,1-12.166,3.327,13.789,13.789,0,0,1-2.863-.91c.5-.607.785-1.058.608-1.177A6.892,6.892,0,0,1,11.1,23.7a6.793,6.793,0,0,1,1.806-.719q.148-.036.3-.065.175-.034.354-.059c.074-.01.149-.02.224-.027l.169-.016q.277-.023.561-.023h4.462a6.985,6.985,0,0,1,.73.038c.075.008.15.017.224.027q.178.025.354.058.114.022.226.048l.074.018a6.806,6.806,0,0,1,1.806.72,6.949,6.949,0,0,1,.988.691Z" fill="#fdbf43"/>
        <path id="Path_209" data-name="Path 209" d="M19.93,22.86v.38a3.185,3.185,0,0,1-6.371,0V22.86c.074-.01.149-.02.224-.027l.169-.016q.277-.023.561-.023h4.462a6.985,6.985,0,0,1,.73.038C19.781,22.84,19.856,22.85,19.93,22.86Z" fill="#ef3a59"/>
        <path id="Path_210" data-name="Path 210" d="M19.19,20.154v3a2.445,2.445,0,0,1-4.89,0v-3h4.89Z" fill="#efb29a"/>
        <path id="Path_211" data-name="Path 211" d="M19.19,22.965v.19a2.445,2.445,0,0,1-1.722,2.336,2.444,2.444,0,0,1-1.7-2.017q.245.015.493.015a8.449,8.449,0,0,0,2.931-.523Z" fill="#f9c5ac"/>
        <g id="Group_77" data-name="Group 77">
          <path id="Path_212" data-name="Path 212" d="M9.994,15.211A2.25,2.25,0,1,1,8.1,12.989a2.252,2.252,0,0,1,1.891,2.223Z" fill="#f9c5ac"/>
          <path id="Path_213" data-name="Path 213" d="M9.994,15.211A2.252,2.252,0,0,1,8.1,17.434a8.417,8.417,0,0,1,0-4.446A2.252,2.252,0,0,1,9.994,15.211Z" fill="#efb29a"/>
          <circle id="Ellipse_12" data-name="Ellipse 12" cx="0.805" cy="0.805" r="0.805" transform="translate(6.937 14.407)" fill="#efb29a"/>
          <path id="Path_214" data-name="Path 214" d="M27.974,14.864q-.035.574-.116,1.136a2.251,2.251,0,1,1,.116-1.136Z" fill="#f9c5ac"/>
          <g id="Group_76" data-name="Group 76">
            <path id="Path_215" data-name="Path 215" d="M23.5,15.211a2.252,2.252,0,0,0,1.891,2.223,8.417,8.417,0,0,0,0-4.446A2.252,2.252,0,0,0,23.5,15.211Z" fill="#efb29a"/>
            <circle id="Ellipse_13" data-name="Ellipse 13" cx="0.805" cy="0.805" r="0.805" transform="translate(24.943 14.407)" fill="#efb29a"/>
          </g>
        </g>
        <path id="Path_216" data-name="Path 216" d="M25.205,14.028a8.46,8.46,0,1,1-16.92,0V7.165h16.92v6.863Z" fill="#f9c5ac"/>
        <path id="Path_217" data-name="Path 217" d="M18.235,22.357l-.132.022a8.465,8.465,0,0,1-9.818-8.351v-6.1l2.983-2.514v8.613A8.462,8.462,0,0,0,18.235,22.357Z" fill="#efb29a"/>
        <path id="Path_218" data-name="Path 218" d="M17.7,15.952H15.785a.414.414,0,1,1,0-.828H17.7a.414.414,0,0,1,0,.828Z" fill="#efb29a"/>
        <g id="Group_78" data-name="Group 78">
          <path id="Path_219" data-name="Path 219" d="M18.131,13.626a1.7,1.7,0,1,0,3.4,0" fill="#efb29a"/>
          <circle id="Ellipse_14" data-name="Ellipse 14" cx="1.219" cy="1.219" r="1.219" transform="translate(18.612 12.407)" fill="#544f57"/>
          <circle id="Ellipse_15" data-name="Ellipse 15" cx="0.522" cy="0.522" r="0.522" transform="translate(19.817 12.889)" fill="#fff"/>
          <path id="Path_220" data-name="Path 220" d="M11.96,13.626a1.7,1.7,0,1,0,3.4,0" fill="#efb29a"/>
          <circle id="Ellipse_16" data-name="Ellipse 16" cx="1.219" cy="1.219" r="1.219" transform="translate(12.441 12.407)" fill="#544f57"/>
          <path id="Path_221" data-name="Path 221" d="M13.944,14.811a1.2,1.2,0,0,1-.285.034,1.219,1.219,0,1,1,0-2.438,1.2,1.2,0,0,1,.285.034,1.219,1.219,0,0,0,0,2.37Z" fill="#454045"/>
          <path id="Path_222" data-name="Path 222" d="M20.116,14.811a1.2,1.2,0,0,1-.285.034,1.219,1.219,0,0,1,0-2.438,1.2,1.2,0,0,1,.285.034,1.219,1.219,0,0,0,0,2.37Z" fill="#454045"/>
          <circle id="Ellipse_17" data-name="Ellipse 17" cx="0.522" cy="0.522" r="0.522" transform="translate(13.645 12.889)" fill="#fff"/>
        </g>
        <path id="Path_223" data-name="Path 223" d="M18.924,0H14.566A6.281,6.281,0,0,0,8.285,6.281v7.758a1.446,1.446,0,0,0,1.446-1.446V9.934A2.659,2.659,0,0,1,12.39,7.274H21.1a2.659,2.659,0,0,1,2.659,2.659v2.66a1.446,1.446,0,0,0,1.446,1.446V6.281A6.281,6.281,0,0,0,18.924,0Z" fill="#af5a35"/>
        <path id="Path_224" data-name="Path 224" d="M17.595,0a6.281,6.281,0,0,0-6.281,6.281V7.5A2.66,2.66,0,0,0,9.731,9.934v2.659a1.446,1.446,0,0,1-1.446,1.446V6.281A6.281,6.281,0,0,1,14.566,0Z" fill="#934327"/>
        <path id="Path_225" data-name="Path 225" d="M14.206,16.822a2.539,2.539,0,0,0,5.078,0" fill="#fff"/>
      </g>
      <path id="Path_226" data-name="Path 226" d="M12.463,27.916a13.992,13.992,0,0,1-9.979-5.954c.179-1.864.982-3.319,2.312-3.829,2.347-.9,5.442,1.484,6.915,5.324A10.844,10.844,0,0,1,12.463,27.916Z" fill="#e7ecf1"/>
      <path id="Path_227" data-name="Path 227" d="M5.159,24.855a14.06,14.06,0,0,1-2.675-2.892c.179-1.864.983-3.318,2.312-3.828A3.044,3.044,0,0,1,6.5,18.012C4.946,19.159,4.413,21.9,5.159,24.855Z" fill="#dae4ea"/>
    </g>
  </g>
</svg>
