<svg xmlns="http://www.w3.org/2000/svg" xmlns:xlink="http://www.w3.org/1999/xlink" width="21" height="21" viewBox="0 0 21 21">
  <defs>
    <clipPath id="clip-path">
      <rect id="Rectangle_6" data-name="Rectangle 6" width="21" height="21" transform="translate(347 109)" fill="#df1b1b"/>
    </clipPath>
  </defs>
  <g id="Mask_Group_1" data-name="Mask Group 1" transform="translate(-347 -109)" clip-path="url(#clip-path)">
    <g id="_x30_8_Basketball" transform="translate(347.005 109.005)">
      <g id="Group_2" data-name="Group 2">
        <path id="Path_1" data-name="Path 1" d="M8.064,13.783l-.312-.406H6.6l-.16.291.209.242c.4.074.8.135,1.209.189Z" fill="#df1b1b"/>
        <path id="Path_2" data-name="Path 2" d="M11.3,13.726l-.23-.348H9.917l-.23.348.406.529c.271,0,.537,0,.808,0Z" fill="#df1b1b"/>
        <path id="Path_3" data-name="Path 3" d="M14.558,13.665l-.16-.291H13.242l-.312.406.2.3c.414-.053.828-.123,1.242-.2Z" fill="#df1b1b"/>
        <path id="Path_4" data-name="Path 4" d="M2.382,12.152a1.237,1.237,0,0,1,.164-.611q-.609-.246-1.205-.529a.222.222,0,0,1-.127-.2V8.97a.217.217,0,0,1,.066-.156A19.912,19.912,0,0,1,5.166,5.686a5.035,5.035,0,0,1-.053-.746c0-.168.008-.336.025-.5A20.252,20.252,0,0,0,.361,8.175a.882.882,0,0,0-.25.615v2.3a.882.882,0,0,0,.492.791c.64.312,1.283.594,1.923.845a1.192,1.192,0,0,1-.143-.574Z" fill="#df1b1b"/>
        <path id="Path_5" data-name="Path 5" d="M20.63,8.171a20.335,20.335,0,0,0-4.776-3.735c.016.164.025.332.025.5a5.131,5.131,0,0,1-.053.75,19.776,19.776,0,0,1,3.882,3.128.224.224,0,0,1,.066.156V10.8a.222.222,0,0,1-.127.2c-.4.189-.808.357-1.214.521a1.225,1.225,0,0,1,.049,1.177c.635-.242,1.267-.517,1.9-.816a.888.888,0,0,0,.5-.8V8.794A.887.887,0,0,0,20.63,8.171Z" fill="#df1b1b"/>
        <path id="Path_6" data-name="Path 6" d="M1.656,10.672c.4.184.8.357,1.2.517a1.209,1.209,0,0,1,.75-.262H17.383a1.234,1.234,0,0,1,.734.246c.406-.16.812-.328,1.214-.512v-1.6A19.679,19.679,0,0,0,15.739,6.15,5.384,5.384,0,0,1,5.4,6.67c-.053-.16-.1-.328-.139-.492,0-.008,0-.02-.008-.029A19.507,19.507,0,0,0,1.656,9.061Z" fill="#df1b1b"/>
        <path id="Path_7" data-name="Path 7" d="M15.1,13.726l-1.554,1.783-1.148-1.742.3-.389H11.6l.242.369L10.5,15.509,9.147,13.747l.242-.369H8.306l.3.389L7.449,15.514,5.9,13.73l.193-.348H4.748a13.873,13.873,0,0,1,2.259,7.4.221.221,0,0,0,.221.209H7.24a.221.221,0,0,0,.209-.234c-.008-.172-.02-.34-.033-.5l.443-.578,1.222,1.25a.283.283,0,0,0,.16.066.229.229,0,0,0,.164-.074l1.082-1.242,1.086,1.242a.218.218,0,0,0,.32.008l1.226-1.25.443.578c-.012.168-.025.336-.033.508a.221.221,0,0,0,.209.234.229.229,0,0,0,.234-.209,14.175,14.175,0,0,1,1.751-6.592c0-.008.008-.012.012-.02.152-.266.316-.529.5-.791H14.89Zm-2.993.41,1.132,1.718-1.32,1.513L10.77,15.874Zm-3.214,0,1.328,1.734-1.148,1.5L7.753,15.854Zm-3.03.209L7.2,15.891l-.439.664a13.147,13.147,0,0,0-.906-2.21Zm1.5,5.256q-.025-.258-.061-.5l.25.258Zm.463-.607-.635-.652c-.074-.422-.164-.832-.266-1.226l.582-.881,1.3,1.488Zm1.41,1.447-1.1-1.127.959-1.25L10.2,19.335Zm.135-2.735L10.5,16.235,11.623,17.7,10.5,18.994Zm2.382,2.735-.968-1.111,1.107-1.271.959,1.255Zm1.874-.849-.189-.246.25-.254C13.665,19.261,13.648,19.425,13.628,19.593Zm.172-1.246-.631.648-.976-1.271,1.3-1.488.582.877c-.1.394-.193.8-.271,1.234Zm.43-1.792-.439-.664,1.345-1.546a12.5,12.5,0,0,0-.906,2.21Z" fill="#df1b1b"/>
        <path id="Path_8" data-name="Path 8" d="M17.387,11.369H3.608a.783.783,0,0,0,0,1.566H17.387a.783.783,0,0,0,0-1.566Z" fill="#df1b1b"/>
        <path id="Path_9" data-name="Path 9" d="M11.2,2.128C12.664,1.656,12.422.951,12.709.517A4.955,4.955,0,0,0,9.7.061,7.143,7.143,0,0,1,11.2,2.128Z" fill="#df1b1b"/>
        <path id="Path_10" data-name="Path 10" d="M8.577,2.177a6.132,6.132,0,0,0,2.189.07A7.988,7.988,0,0,0,9.2.168,4.949,4.949,0,0,0,6.461,2.087a6.426,6.426,0,0,1,2.115.09Z" fill="#df1b1b"/>
        <path id="Path_11" data-name="Path 11" d="M11.393,2.534c.111.242.209.488.3.734a15.59,15.59,0,0,1,3.3-.381,4.91,4.91,0,0,0-1.9-2.152A2.266,2.266,0,0,1,11.393,2.534Z" fill="#df1b1b"/>
        <path id="Path_12" data-name="Path 12" d="M12.094,4.522c1.566-.168,2.4.635,3.112,1.915a4.891,4.891,0,0,0,.234-1.5,4.838,4.838,0,0,0-.275-1.624.166.166,0,0,1-.078.016h-.025a15.425,15.425,0,0,0-3.218.361C11.939,3.969,12.021,4.243,12.094,4.522Z" fill="#df1b1b"/>
        <path id="Path_13" data-name="Path 13" d="M15.026,6.916c-.291-.1-.754-2.136-2.821-1.964a14.071,14.071,0,0,1,.279,1.574.221.221,0,0,1-.439.053,12.677,12.677,0,0,0-.279-1.558c-1.25.291-1.812,1.46-2.353,2.591A6.847,6.847,0,0,1,8.347,9.388,4.892,4.892,0,0,0,10.5,9.88a5,5,0,0,0,1.595-.262c-.037-.09.049-.471.053-1.312a.217.217,0,0,1,.221-.217.22.22,0,0,1,.221.221c0,.365-.02.746-.061,1.132a4.943,4.943,0,0,0,2.5-2.525Z" fill="#df1b1b"/>
        <path id="Path_14" data-name="Path 14" d="M6.732,5.272a.219.219,0,0,1,.3.066.223.223,0,0,1-.061.307,7.7,7.7,0,0,0-1.07.832.2.2,0,0,1-.09.049A4.956,4.956,0,0,0,7.949,9.175,5.071,5.071,0,0,0,9.011,7.421c.558-1.173,1.189-2.489,2.644-2.829q-.111-.4-.246-.8a15.82,15.82,0,0,0-2.8.955.221.221,0,0,1-.184-.4,16.553,16.553,0,0,1,2.829-.972c-.094-.242-.193-.484-.3-.722A6.028,6.028,0,0,1,8.5,2.612a8.26,8.26,0,0,0-2.337-.074,4.919,4.919,0,0,0-.619,2.394,5.018,5.018,0,0,0,.131,1.144,9.078,9.078,0,0,1,1.054-.8Z" fill="#df1b1b"/>
      </g>
    </g>
  </g>
</svg>
