<svg xmlns="http://www.w3.org/2000/svg" xmlns:xlink="http://www.w3.org/1999/xlink" width="28" height="28" viewBox="0 0 28 28">
  <defs>
    <clipPath id="clip-path">
      <rect id="Rectangle_20" data-name="Rectangle 20" width="28" height="28" transform="translate(318 390)" fill="#fff"/>
    </clipPath>
  </defs>
  <g id="Mask_Group_9" data-name="Mask Group 9" transform="translate(-318 -390)" clip-path="url(#clip-path)">
    <g id="goal" transform="translate(318 390)">
      <g id="Group_18" data-name="Group 18">
        <path id="Path_88" data-name="Path 88" d="M14,0A14,14,0,0,0,1.676,7.352h0v.536L.929,8.977q-.091.236-.174.476l.256.281-.578.794A14.1,14.1,0,0,0,.207,16.41H.7l-.3.925a13.971,13.971,0,0,0,3.415,6.27l.491-.117.088.7a13.971,13.971,0,0,0,6.27,3.415l.724-.242.2.435a14.1,14.1,0,0,0,5.881-.227l.795-.7.281.379q.24-.082.476-.173l1.321-1.053.3.306h0A14,14,0,0,0,14,0Z" fill="#69d173"/>
      </g>
      <g id="Group_40" data-name="Group 40">
        <g id="Group_19" data-name="Group 19">
          <path id="Path_89" data-name="Path 89" d="M23.135,4.865c-1.174-1.174-3.164-1.353-5.6-.505C13.967,5.6,8.962,8.938,2.656,14.287,1.8,15.012.98,15.726.207,16.41q.081.468.193.925c.868-.773,1.8-1.591,2.785-2.423C9.328,9.7,14.381,6.322,17.8,5.134c2.127-.739,3.816-.629,4.755.311s1.05,2.628.311,4.755c-1.188,3.418-4.568,8.47-9.775,14.609-.833.982-1.652,1.92-2.426,2.79q.457.112.925.193c.684-.772,1.4-1.594,2.123-2.448,5.349-6.307,8.69-11.311,9.928-14.875.848-2.44.668-4.431-.506-5.6Z" fill="#dad9dd"/>
        </g>
        <g id="Group_37" data-name="Group 37">
          <g id="Group_20" data-name="Group 20">
            <path id="Path_90" data-name="Path 90" d="M24.156,2.872a9.56,9.56,0,0,0-3.123-1.807H14.752a9.56,9.56,0,0,0-3.123,1.807L8.493,8.3a9.628,9.628,0,0,0,0,3.608l3.136,5.432a9.559,9.559,0,0,0,3.123,1.807h6.281a9.56,9.56,0,0,0,3.123-1.807l3.136-5.432a9.628,9.628,0,0,0,0-3.608Z" fill="#ebeaec"/>
          </g>
          <g id="Group_21" data-name="Group 21">
            <path id="Path_91" data-name="Path 91" d="M23.677,4.287a.408.408,0,0,1-.2-.055L20.191,2.338a.41.41,0,0,1,.41-.71l3.281,1.894a.41.41,0,0,1-.205.765Z" fill="#dad9dd"/>
          </g>
          <g id="Group_22" data-name="Group 22">
            <path id="Path_92" data-name="Path 92" d="M12.108,4.287a.41.41,0,0,1-.205-.765l3.281-1.894a.41.41,0,0,1,.41.71L12.313,4.232a.408.408,0,0,1-.2.055Z" fill="#dad9dd"/>
          </g>
          <g id="Group_23" data-name="Group 23">
            <path id="Path_93" data-name="Path 93" d="M26.18,12.412a.41.41,0,0,1-.41-.41V8.213a.41.41,0,1,1,.82,0V12a.41.41,0,0,1-.41.41Z" fill="#dad9dd"/>
          </g>
          <g id="Group_24" data-name="Group 24">
            <path id="Path_94" data-name="Path 94" d="M11.628,2.873,8.492,8.3a9.644,9.644,0,0,0,0,3.607l3.136,5.432a9.559,9.559,0,0,0,3.123,1.807h6.281a9.56,9.56,0,0,0,3.124-1.808l1.162-2.013A9.573,9.573,0,0,1,13.114,1.814a9.6,9.6,0,0,0-1.486,1.058Z" fill="#dad9dd"/>
          </g>
          <g id="Group_25" data-name="Group 25">
            <path id="Path_95" data-name="Path 95" d="M9.6,12.412a.41.41,0,0,1-.41-.41V8.213a.41.41,0,1,1,.82,0V12a.41.41,0,0,1-.41.41Z" fill="#cbcbcf"/>
          </g>
          <g id="Group_26" data-name="Group 26">
            <path id="Path_96" data-name="Path 96" d="M15.389,18.643a.408.408,0,0,1-.2-.055L11.9,16.693a.41.41,0,1,1,.41-.71l3.281,1.894a.41.41,0,0,1-.205.765Z" fill="#cbcbcf"/>
          </g>
          <g id="Group_27" data-name="Group 27">
            <path id="Path_97" data-name="Path 97" d="M20.4,18.643a.41.41,0,0,1-.205-.765l3.281-1.894a.41.41,0,0,1,.41.71L20.6,18.588a.408.408,0,0,1-.2.055Z" fill="#cbcbcf"/>
          </g>
          <path id="Path_98" data-name="Path 98" d="M25.256,13.885l-6.543-3.778L25.256,6.33a.41.41,0,1,0-.41-.71L18.3,9.4V1.842a.41.41,0,1,0-.82,0V9.4L10.939,5.619a.41.41,0,0,0-.41.71l6.543,3.778-6.543,3.778a.41.41,0,1,0,.41.71l6.543-3.778v7.556a.41.41,0,0,0,.82,0V10.818L24.846,14.6a.41.41,0,0,0,.41-.71Z" fill="#dad9dd"/>
          <g id="Group_28" data-name="Group 28">
            <path id="Path_99" data-name="Path 99" d="M15.071,8.11l2.5-1.445a.638.638,0,0,1,.638,0l2.5,1.445a.638.638,0,0,1,.319.553v2.889a.638.638,0,0,1-.319.553l-2.5,1.445a.638.638,0,0,1-.638,0l-2.5-1.445a.638.638,0,0,1-.319-.553V8.663a.638.638,0,0,1,.319-.553Z" fill="#7c5577"/>
          </g>
          <g id="Group_29" data-name="Group 29">
            <path id="Path_100" data-name="Path 100" d="M17.892.537a9.554,9.554,0,0,0-3.14.528v.917a.638.638,0,0,0,.319.553l2.5,1.445a.638.638,0,0,0,.638,0l2.5-1.445a.638.638,0,0,0,.319-.553V1.065a9.556,9.556,0,0,0-3.14-.528Z" fill="#7c5577"/>
          </g>
          <g id="Group_30" data-name="Group 30">
            <path id="Path_101" data-name="Path 101" d="M20.714,17.681l-2.5-1.445a.638.638,0,0,0-.638,0l-2.5,1.445a.638.638,0,0,0-.319.553v.917a9.606,9.606,0,0,0,6.281,0v-.917a.638.638,0,0,0-.319-.553Z" fill="#603256"/>
          </g>
          <g id="Group_31" data-name="Group 31">
            <path id="Path_102" data-name="Path 102" d="M8.492,8.306l.793.458a.638.638,0,0,0,.638,0l2.5-1.445a.638.638,0,0,0,.319-.553V3.878a.638.638,0,0,0-.319-.553l-.792-.457A9.56,9.56,0,0,0,8.492,8.306Z" fill="#7c5577"/>
          </g>
          <g id="Group_32" data-name="Group 32">
            <path id="Path_103" data-name="Path 103" d="M11.837,6.593a9.55,9.55,0,0,1,.575-3.275l-.779-.45A9.56,9.56,0,0,0,8.491,8.306l.794.458a.638.638,0,0,0,.638,0l1.969-1.137a9.68,9.68,0,0,1-.056-1.035Z" fill="#603256"/>
          </g>
          <g id="Group_33" data-name="Group 33">
            <path id="Path_104" data-name="Path 104" d="M26.5,11.451a.638.638,0,0,0-.638,0l-2.5,1.445a.638.638,0,0,0-.319.553v2.889a.638.638,0,0,0,.319.553l.792.457a9.561,9.561,0,0,0,3.141-5.439Z" fill="#7c5577"/>
          </g>
          <g id="Group_34" data-name="Group 34">
            <path id="Path_105" data-name="Path 105" d="M23.04,16.024v.313a.638.638,0,0,0,.319.553l.792.457a9.615,9.615,0,0,0,2.035-2.461,9.507,9.507,0,0,1-3.146,1.138Z" fill="#603256"/>
          </g>
          <g id="Group_35" data-name="Group 35">
            <path id="Path_106" data-name="Path 106" d="M12.425,12.9l-2.5-1.445a.638.638,0,0,0-.638,0l-.793.458a9.56,9.56,0,0,0,3.141,5.439l.792-.457a.638.638,0,0,0,.319-.553V13.448a.638.638,0,0,0-.319-.553Z" fill="#603256"/>
          </g>
          <g id="Group_36" data-name="Group 36">
            <path id="Path_107" data-name="Path 107" d="M24.152,2.868l-.792.457a.638.638,0,0,0-.319.553V6.767a.638.638,0,0,0,.319.553l2.5,1.445a.638.638,0,0,0,.638,0l.793-.458a9.561,9.561,0,0,0-3.141-5.439Z" fill="#7c5577"/>
          </g>
        </g>
        <g id="Group_39" data-name="Group 39">
          <g id="Group_38" data-name="Group 38">
            <path id="Path_108" data-name="Path 108" d="M25.118,2.972a.354.354,0,0,0-.09-.09A9.946,9.946,0,0,0,18.02,0a13.049,13.049,0,0,0-1.947.153h0a21.435,21.435,0,0,0-5.605,1.763A43.769,43.769,0,0,0,3.393,6.088c-.6.423-1.17.848-1.716,1.264A13.835,13.835,0,0,0,.928,8.979c.886-.71,1.876-1.467,2.941-2.222C9.338,2.873,14.231.82,18.02.82c.273,0,.544.012.81.036A9.129,9.129,0,0,1,24.2,3.223l-.592.592L18.014,9.407A10.084,10.084,0,0,0,11.5,6.8,19.457,19.457,0,0,0,4.242,8.012,33.6,33.6,0,0,0,.755,9.453q-.181.529-.322,1.076A33.282,33.282,0,0,1,4.51,8.787c5.6-1.935,9.944-1.531,12.924,1.2L3.815,23.605q.281.3.58.58L18.013,10.567c2.728,2.977,3.134,7.317,1.205,12.908a33.253,33.253,0,0,1-1.748,4.092q.547-.139,1.077-.322a33.384,33.384,0,0,0,1.441-3.486A19.468,19.468,0,0,0,21.2,16.5a10.084,10.084,0,0,0-2.611-6.518l5.592-5.592.592-.592A9.129,9.129,0,0,1,27.144,9.17c.024.267.036.538.036.81,0,3.786-2.05,8.676-5.929,14.142-.757,1.067-1.518,2.062-2.23,2.95a13.835,13.835,0,0,0,1.627-.749c.417-.546.841-1.12,1.264-1.716a43.769,43.769,0,0,0,4.172-7.073,21.435,21.435,0,0,0,1.763-5.605h0A13.049,13.049,0,0,0,28,9.98a9.946,9.946,0,0,0-2.882-7.008Z" fill="#fff"/>
          </g>
        </g>
      </g>
    </g>
  </g>
</svg>
