<svg xmlns="http://www.w3.org/2000/svg" xmlns:xlink="http://www.w3.org/1999/xlink" width="20" height="20" viewBox="0 0 20 20">
  <defs>
    <clipPath id="clip-path">
      <rect id="Rectangle_287" data-name="Rectangle 287" width="20" height="20" transform="translate(653 109)" fill="#df1b1b"/>
    </clipPath>
  </defs>
  <g id="Mask_Group_27" data-name="Mask Group 27" transform="translate(-653 -109)" clip-path="url(#clip-path)">
    <g id="casino-chip" transform="translate(653 109)">
      <path id="Path_3612" data-name="Path 3612" d="M7.657,3.143V.277a10.026,10.026,0,0,0-3.046,1.3L6.625,3.589A7.2,7.2,0,0,1,7.657,3.143Z" fill="#df1b1b"/>
      <path id="Path_3613" data-name="Path 3613" d="M13.375,3.589l2.014-2.014a10.024,10.024,0,0,0-3.046-1.3V3.143a7.2,7.2,0,0,1,1.032.447Z" fill="#df1b1b"/>
      <path id="Path_3614" data-name="Path 3614" d="M16.946,7.934h2.839a10.031,10.031,0,0,0-1.15-2.979L16.594,7a7.193,7.193,0,0,1,.352.938Z" fill="#df1b1b"/>
      <path id="Path_3615" data-name="Path 3615" d="M7,16.594,4.955,18.636a9.842,9.842,0,0,0,2.7,1.088V16.857Q7.319,16.742,7,16.594Z" fill="#df1b1b"/>
      <path id="Path_3616" data-name="Path 3616" d="M12.343,16.857v2.866a9.84,9.84,0,0,0,2.7-1.088L13,16.594q-.322.147-.66.263Z" fill="#df1b1b"/>
      <path id="Path_3617" data-name="Path 3617" d="M.215,7.934H3.054A7.193,7.193,0,0,1,3.406,7L1.365,4.956A10.031,10.031,0,0,0,.215,7.934Z" fill="#df1b1b"/>
      <path id="Path_3618" data-name="Path 3618" d="M2.754,10a7.283,7.283,0,0,1,.055-.894H.04C.014,9.4,0,9.7,0,10a10.141,10.141,0,0,0,.1,1.448H2.9A7.251,7.251,0,0,1,2.754,10Z" fill="#df1b1b"/>
      <path id="Path_3619" data-name="Path 3619" d="M3.244,12.62H.347a9.839,9.839,0,0,0,1.228,2.769l2.014-2.014A7.2,7.2,0,0,1,3.244,12.62Z" fill="#df1b1b"/>
      <path id="Path_3620" data-name="Path 3620" d="M16.349,2.273,14.385,4.236A7.307,7.307,0,0,1,16,5.937l1.975-1.975a10.153,10.153,0,0,0-.9-1.032Q16.723,2.581,16.349,2.273Z" fill="#df1b1b"/>
      <path id="Path_3621" data-name="Path 3621" d="M4,5.937a7.307,7.307,0,0,1,1.611-1.7L3.651,2.273q-.374.309-.723.656a10.149,10.149,0,0,0-.9,1.032Z" fill="#df1b1b"/>
      <path id="Path_3622" data-name="Path 3622" d="M8.829.068V2.849a7.256,7.256,0,0,1,2.342,0V.068a10.116,10.116,0,0,0-2.342,0Z" fill="#df1b1b"/>
      <path id="Path_3623" data-name="Path 3623" d="M3.961,17.972,5.937,16a7.307,7.307,0,0,1-1.7-1.611L2.273,16.349q.309.374.656.723a10.153,10.153,0,0,0,1.032.9Z" fill="#df1b1b"/>
      <path id="Path_3624" data-name="Path 3624" d="M15.764,14.385A7.307,7.307,0,0,1,14.063,16l1.975,1.975a10.152,10.152,0,0,0,1.032-.9q.348-.348.656-.723Z" fill="#df1b1b"/>
      <path id="Path_3625" data-name="Path 3625" d="M11.171,19.932V17.151a7.256,7.256,0,0,1-2.342,0v2.781a10.116,10.116,0,0,0,2.342,0Z" fill="#df1b1b"/>
      <path id="Path_3626" data-name="Path 3626" d="M19.96,9.106H17.191a7.277,7.277,0,0,1-.09,2.342h2.8A10.147,10.147,0,0,0,20,10C20,9.7,19.986,9.4,19.96,9.106Z" fill="#df1b1b"/>
      <path id="Path_3627" data-name="Path 3627" d="M19.653,12.62h-2.9a7.215,7.215,0,0,1-.345.754l2.014,2.014A9.838,9.838,0,0,0,19.653,12.62Z" fill="#df1b1b"/>
      <path id="Path_3628" data-name="Path 3628" d="M16.074,10A6.074,6.074,0,1,0,10,16.074,6.081,6.081,0,0,0,16.074,10Zm-5.717,3.724a.368.368,0,1,1-.735-.027l.006-.161a2.993,2.993,0,0,1-1.8-.714.494.494,0,0,1-.068-.665l.159-.215a.494.494,0,0,1,.7-.1,2.142,2.142,0,0,0,1.123.465L9.771,10.6l-.348-.143c-.891-.379-1.638-.87-1.638-1.965A2.054,2.054,0,0,1,9.894,6.474l.007-.2a.368.368,0,0,1,.368-.354h.008a.368.368,0,0,1,.368.375l0,.2a2.766,2.766,0,0,1,1.383.513.5.5,0,0,1,.121.659l-.111.177a.5.5,0,0,1-.709.14,1.9,1.9,0,0,0-.8-.333l-.041,1.638.645.276a1.978,1.978,0,0,1,1.351,1.863,2.2,2.2,0,0,1-2.119,2.088Z" fill="#df1b1b"/>
      <path id="Path_3629" data-name="Path 3629" d="M9.218,8.326a.757.757,0,0,0,.522.686l.113.051.031-1.423A.668.668,0,0,0,9.218,8.326Z" fill="#df1b1b"/>
      <path id="Path_3630" data-name="Path 3630" d="M10.58,10.885l-.164-.082-.031,1.525a.757.757,0,0,0,.686-.706.75.75,0,0,0-.491-.737Z" fill="#df1b1b"/>
    </g>
  </g>
</svg>
