<svg xmlns="http://www.w3.org/2000/svg" width="20.844" height="20.844" viewBox="0 0 20.844 20.844">
  <path id="football" d="M10.422,0A10.422,10.422,0,1,0,20.844,10.422,10.422,10.422,0,0,0,10.422,0Zm.372,3,3.623-1.448a9.748,9.748,0,0,1,1.19.642l.009.006a9.783,9.783,0,0,1,1.072.786l.029.025q.228.194.444.4l.055.053q.226.221.438.455l.035.04c.124.139.243.283.359.429l.083.1c.126.163.247.328.362.5l-.722,3.07L14.218,9.253,10.795,6.514ZM2.711,4.5l.082-.1q.171-.218.355-.425l.039-.044q.211-.235.436-.455c.017-.017.035-.035.053-.05q.214-.206.44-.4l.035-.029a9.82,9.82,0,0,1,1.062-.782L5.227,2.2A9.759,9.759,0,0,1,6.41,1.563L10.05,3V6.513L6.627,9.252,3.073,8.069,2.351,5C2.467,4.829,2.587,4.664,2.711,4.5ZM2.293,15.753Q2.14,15.519,2,15.277l-.023-.039q-.139-.241-.263-.49l0-.005a9.678,9.678,0,0,1-.457-1.077v0c-.062-.174-.118-.352-.17-.531l-.019-.066q-.071-.252-.13-.51c0-.017-.008-.033-.011-.049a9.669,9.669,0,0,1-.184-1.177L2.862,8.784,6.391,9.96l1.024,4.1L5.732,16.3Zm10.442,4.116c-.174.043-.352.08-.53.114L12.13,20c-.152.027-.305.05-.459.069l-.123.016c-.143.017-.287.029-.432.04l-.136.011c-.185.011-.371.018-.559.018q-.258,0-.512-.014c-.021,0-.04,0-.061,0q-.227-.013-.452-.035l-.017,0a9.9,9.9,0,0,1-.98-.156L6.345,16.719,8,14.51h4.84l1.684,2.223Zm7.187-7.362-.011.049q-.058.257-.13.51l-.019.066c-.052.179-.108.356-.17.531v0a9.647,9.647,0,0,1-.457,1.077l0,.005q-.125.249-.263.49l-.023.039q-.139.243-.292.475l-3.427.54-1.695-2.237,1.024-4.1,3.529-1.176,2.121,2.545A9.647,9.647,0,0,1,19.922,12.506Zm0,0" fill="#df1b1b"/>
</svg>
