<svg xmlns="http://www.w3.org/2000/svg" xmlns:xlink="http://www.w3.org/1999/xlink" width="28" height="28" viewBox="0 0 28 28">
  <defs>
    <clipPath id="clip-path">
      <rect id="Rectangle_20" data-name="Rectangle 20" width="28" height="28" transform="translate(318 390)" fill="#fff"/>
    </clipPath>
  </defs>
  <g id="Mask_Group_20" data-name="Mask Group 20" transform="translate(-318 -390)" clip-path="url(#clip-path)">
    <g id="table-tennis" transform="translate(318 390)">
      <circle id="Ellipse_18" data-name="Ellipse 18" cx="14" cy="14" r="14" fill="#ffd944"/>
      <path id="Path_248" data-name="Path 248" d="M12.75,15.25,6.959,23.962l3.615,3.615a14.009,14.009,0,0,0,17-17L22.5,5.5Z" fill="#fc0"/>
      <g id="Group_88" data-name="Group 88">
        <path id="Path_249" data-name="Path 249" d="M22.5,5.5c-3.2-3.2-8.575-3.014-12.005.417a9.184,9.184,0,0,0-2.507,4.574l4.119,5.4,5.654-3.97Z" fill="#ff6426"/>
        <path id="Path_250" data-name="Path 250" d="M22.5,5.5,12.109,15.891l5.4,4.119A9.184,9.184,0,0,0,22.085,17.5C25.515,14.074,25.7,8.7,22.5,5.5Z" fill="#ff4c04"/>
        <path id="Path_251" data-name="Path 251" d="M5.5,22.5l4.416-3.791L12.75,15.25,7.989,10.489a8.235,8.235,0,0,0,.829,5.771L4.038,21.041Z" fill="#b46d3c"/>
        <path id="Path_252" data-name="Path 252" d="M5.5,22.5l1.461,1.461,4.781-4.781a8.235,8.235,0,0,0,5.771.829L12.75,15.25Z" fill="#8e562f"/>
      </g>
      <g id="Group_89" data-name="Group 89">
        <path id="Path_253" data-name="Path 253" d="M18.165,20.952l-2.823.941a2.661,2.661,0,0,1,3.764-3.764Z" fill="#ebf3ff"/>
        <path id="Path_254" data-name="Path 254" d="M19.106,21.893a2.661,2.661,0,0,1-3.764,0l3.764-3.764A2.661,2.661,0,0,1,19.106,21.893Z" fill="#d7e8ff"/>
      </g>
    </g>
  </g>
</svg>
