<svg xmlns="http://www.w3.org/2000/svg" xmlns:xlink="http://www.w3.org/1999/xlink" width="20" height="20" viewBox="0 0 20 20">
  <defs>
    <clipPath id="clip-path">
      <rect id="Rectangle_289" data-name="Rectangle 289" width="20" height="20" transform="translate(324 109)" fill="#df1b1b"/>
    </clipPath>
  </defs>
  <g id="Mask_Group_29" data-name="Mask Group 29" transform="translate(-324 -109)" clip-path="url(#clip-path)">
    <g id="turbo" transform="translate(324 109.625)">
      <path id="Path_3644" data-name="Path 3644" d="M18.789,1.172h-10a8.792,8.792,0,1,0,8.286,5.859H11.65A4.1,4.1,0,1,1,8.789,5.859h10V7.031H20V0H18.789Zm0,0" fill="#df1b1b"/>
      <path id="Path_3645" data-name="Path 3645" d="M11.67,10.44a2.742,2.742,0,0,0-.188-1.629l-.575.034a1.712,1.712,0,0,0-.639.173,1.748,1.748,0,0,1,.217.506A2.863,2.863,0,0,1,11.67,10.44Zm0,0" fill="#df1b1b"/>
      <path id="Path_3646" data-name="Path 3646" d="M5.908,9.482A2.742,2.742,0,0,0,6.1,11.111l.575-.034A1.712,1.712,0,0,0,7.31,10.9a1.748,1.748,0,0,1-.217-.506A2.863,2.863,0,0,1,5.908,9.482Zm0,0" fill="#df1b1b"/>
      <path id="Path_3647" data-name="Path 3647" d="M9.134,7.066l-.251.5a1.705,1.705,0,0,0-.169.642c.026,0,.05-.008.076-.008a1.737,1.737,0,0,1,.469.072,2.863,2.863,0,0,1,1.379-.568A2.9,2.9,0,0,0,9.134,7.066Zm0,0" fill="#df1b1b"/>
      <path id="Path_3648" data-name="Path 3648" d="M7.563,8.705a2.867,2.867,0,0,1,.2-1.479,2.927,2.927,0,0,0-1.311.986l.312.472a1.711,1.711,0,0,0,.473.468A1.761,1.761,0,0,1,7.563,8.705Zm0,0" fill="#df1b1b"/>
      <path id="Path_3649" data-name="Path 3649" d="M11.126,11.709l-.312-.472a1.709,1.709,0,0,0-.473-.468,1.761,1.761,0,0,1-.325.447,2.867,2.867,0,0,1-.2,1.479A2.927,2.927,0,0,0,11.126,11.709Zm0,0" fill="#df1b1b"/>
      <path id="Path_3650" data-name="Path 3650" d="M9.375,9.961a.586.586,0,1,0-.586.586A.586.586,0,0,0,9.375,9.961Zm0,0" fill="#df1b1b"/>
      <path id="Path_3651" data-name="Path 3651" d="M8.7,12.353a1.705,1.705,0,0,0,.169-.642c-.026,0-.05.008-.076.008a1.737,1.737,0,0,1-.469-.072,2.863,2.863,0,0,1-1.379.568,2.9,2.9,0,0,0,1.5.641Zm0,0" fill="#df1b1b"/>
      <path id="Path_3652" data-name="Path 3652" d="M17.578,16.992a1.746,1.746,0,0,0-.628-1.337,10.028,10.028,0,0,1-2.466,2.466,1.751,1.751,0,0,0,3.094-1.129Zm0,0" fill="#df1b1b"/>
      <path id="Path_3653" data-name="Path 3653" d="M3.094,1.8A1.751,1.751,0,1,0,.628,4.266,10.028,10.028,0,0,1,3.094,1.8Zm0,0" fill="#df1b1b"/>
      <path id="Path_3654" data-name="Path 3654" d="M.628,15.656a1.751,1.751,0,1,0,2.466,2.466A10.028,10.028,0,0,1,.628,15.656Zm0,0" fill="#df1b1b"/>
    </g>
  </g>
</svg>
