<svg xmlns="http://www.w3.org/2000/svg" xmlns:xlink="http://www.w3.org/1999/xlink" width="22" height="22" viewBox="0 0 22 22">
  <defs>
    <clipPath id="clip-path">
      <rect id="Rectangle_7" data-name="Rectangle 7" width="22" height="22" transform="translate(349 109.302)" fill="#df1b1b"/>
    </clipPath>
  </defs>
  <g id="Mask_Group_2" data-name="Mask Group 2" transform="translate(-349 -109.302)" clip-path="url(#clip-path)">
    <g id="controller" transform="translate(349 112.609)">
      <circle id="Ellipse_1" data-name="Ellipse 1" cx="1.394" cy="1.394" r="1.394" transform="translate(13.939 8.365)" fill="#df1b1b"/>
      <circle id="Ellipse_2" data-name="Ellipse 2" cx="1.394" cy="1.394" r="1.394" transform="translate(5.575 8.365)" fill="#df1b1b"/>
      <path id="Path_15" data-name="Path 15" d="M8.122,7.209a.087.087,0,0,0,.084.066h4.182a.087.087,0,0,0,.084-.066l.7-2.557a.131.131,0,0,0-.126-.165h-5.5a.131.131,0,0,0-.126.165Z" transform="translate(0.853 -3.092)" fill="#df1b1b"/>
      <path id="Path_16" data-name="Path 16" d="M21.067,8.226A10.346,10.346,0,0,0,19.31,4.993a1.04,1.04,0,0,0-.492-.318V4.282a1.046,1.046,0,0,0-1.046-1.046H16.379a1.046,1.046,0,0,0-1.046,1.046V4.63H14.9a.131.131,0,0,0-.126.1L14,7.526a.783.783,0,0,1-.76.589H9.06a.783.783,0,0,1-.76-.589l-.77-2.8a.131.131,0,0,0-.126-.1H6.969V4.282A1.046,1.046,0,0,0,5.923,3.236H4.529A1.046,1.046,0,0,0,3.484,4.282v.393a1.04,1.04,0,0,0-.492.318A10.345,10.345,0,0,0,1.236,8.226,24.13,24.13,0,0,0,0,16.112a1.046,1.046,0,0,0,.438.861l1.615,1.153a1.048,1.048,0,0,0,1.417-.189l2.464-3.011a.087.087,0,0,0-.023-.13,2.092,2.092,0,1,1,2.415-.213.087.087,0,0,0,.056.153H13.92a.087.087,0,0,0,.056-.153,2.091,2.091,0,1,1,2.415.213.087.087,0,0,0-.023.13l2.464,3.011a1.048,1.048,0,0,0,1.417.189l1.615-1.153a1.046,1.046,0,0,0,.438-.861,24.132,24.132,0,0,0-1.236-7.886ZM3.832,8.638H3.483a.349.349,0,1,1,0-.7h.349a.349.349,0,1,1,0,.7Zm1.22.871a.349.349,0,0,1-.7,0V9.161a.349.349,0,0,1,.7,0Zm0-2.091a.349.349,0,0,1-.7,0V7.07a.349.349,0,0,1,.7,0Zm.871,1.22H5.575a.349.349,0,0,1,0-.7h.349a.349.349,0,1,1,0,.7Zm10.456.174a.349.349,0,1,1,.349-.349A.349.349,0,0,1,16.379,8.813Zm1.046,1.046a.349.349,0,1,1,.349-.349A.349.349,0,0,1,17.425,9.858Zm0-2.091a.349.349,0,1,1,.349-.349A.349.349,0,0,1,17.425,7.767ZM18.47,8.813a.349.349,0,1,1,.349-.349A.349.349,0,0,1,18.47,8.813Z" transform="translate(0 -3.236)" fill="#df1b1b"/>
    </g>
  </g>
</svg>
