<svg xmlns="http://www.w3.org/2000/svg" xmlns:xlink="http://www.w3.org/1999/xlink" width="28" height="28" viewBox="0 0 28 28">
  <defs>
    <clipPath id="clip-path">
      <rect id="Rectangle_20" data-name="Rectangle 20" width="28" height="28" transform="translate(318 390)" fill="#fff"/>
    </clipPath>
  </defs>
  <g id="Mask_Group_14" data-name="Mask Group 14" transform="translate(-318 -390)" clip-path="url(#clip-path)">
    <g id="volleyball" transform="translate(318 390)">
      <path id="Path_136" data-name="Path 136" d="M13.437,27.578l-.762-9.9,1.464-3.839,4.552,4.022-1.328,6.2Z" fill="#fadc60"/>
      <path id="Path_137" data-name="Path 137" d="M14.863,19.758,7.7,14,.515,12.312A13.681,13.681,0,0,0,.966,17.86l3.409,4.6,7.547,3.076,2.511-1.088A21.71,21.71,0,0,0,14.863,19.758Z" fill="#efedee"/>
      <path id="Path_138" data-name="Path 138" d="M14.139,13.839,9.921,6.318H2.788A13.516,13.516,0,0,0,.515,12.312c6.318,6.921,13.435,7.411,14.349,7.446A26.533,26.533,0,0,0,14.139,13.839Z" fill="#57d0e6"/>
      <path id="Path_139" data-name="Path 139" d="M22.2,3.162A13.54,13.54,0,0,0,17.054.755H14L7.055,3.445,4.867,8.666a21.25,21.25,0,0,0,3.81,2.784L13.07,10.2,21.82,5.3l.38-2.143Z" fill="#efedee"/>
      <path id="Path_140" data-name="Path 140" d="M22.2,3.162h0C13.067,5,9.186,10.649,8.677,11.45a25.753,25.753,0,0,0,5.462,2.389L16.516,14l9.533-6.291A13.651,13.651,0,0,0,22.2,3.162Z" fill="#f2c42c"/>
      <path id="Path_141" data-name="Path 141" d="M23.417,8.223a15.029,15.029,0,0,1,2.632-.514,13.6,13.6,0,0,1-1.415,14.754Z" fill="#efedee"/>
      <g id="Group_53" data-name="Group 53">
        <path id="Path_142" data-name="Path 142" d="M23.417,8.223A19.787,19.787,0,0,0,18.9,10.2L16.516,14l2.531,12.621A13.618,13.618,0,0,0,24.3,22.869h0q.171-.2.336-.405A19.967,19.967,0,0,0,23.417,8.223Z" fill="#50bfd4"/>
        <path id="Path_143" data-name="Path 143" d="M17.054.755A16.977,16.977,0,0,0,4.867,8.666,15.641,15.641,0,0,1,2.788,6.318,13.613,13.613,0,0,1,17.054.755Z" fill="#50bfd4"/>
      </g>
      <path id="Path_144" data-name="Path 144" d="M14.433,24.451a15.591,15.591,0,0,1-1,3.128A13.6,13.6,0,0,1,.966,17.86,18.145,18.145,0,0,0,14.433,24.451Z" fill="#f2c42c"/>
      <path id="Path_145" data-name="Path 145" d="M18.9,10.2a24.086,24.086,0,0,0-4.758,3.639,26.533,26.533,0,0,1,.725,5.919,21.71,21.71,0,0,1-.43,4.693,15.591,15.591,0,0,1-1,3.128q.281.011.563.011a13.55,13.55,0,0,0,5.047-.968h0C22.309,17.49,19.115,10.65,18.9,10.2Z" fill="#fadc60"/>
      <path id="Path_146" data-name="Path 146" d="M.581,17.977A14.013,14.013,0,0,0,19.207,27L19.218,27A14.389,14.389,0,0,0,27.2,18.7,14.158,14.158,0,0,0,24.264,4.473,14,14,0,0,0,.116,12.262a14.095,14.095,0,0,0,.466,5.715Zm.794-4.2a24.332,24.332,0,0,0,4.884,3.676,22.835,22.835,0,0,0,2.7,1.307A.41.41,0,0,0,9.269,18a21.971,21.971,0,0,1-2.563-1.237,23.828,23.828,0,0,1-5.588-4.415l-.163-.175A13.189,13.189,0,0,1,2.818,7.033l.071.089a18.6,18.6,0,0,0,4.379,3.932A25.612,25.612,0,0,0,9.7,12.472a26.172,26.172,0,0,0,4.1,1.694,26.408,26.408,0,0,1,.566,3.7c.041.48.082.966.082,1.448v0L14.3,19.3c-.265-.027-.536-.064-.8-.106a18.4,18.4,0,0,1-2.154-.484c-.167-.048-.336-.114-.506-.149a.41.41,0,0,0-.2.794,20.11,20.11,0,0,0,2.132.542c.337.066.676.122,1.016.167.216.029.432.053.649.071l.031,0c0,.016,0,.031,0,.047a21.19,21.19,0,0,1-.349,3.8l-.008.044a15.622,15.622,0,0,1-3.079-.426,18.087,18.087,0,0,1-1.946-.576,17.844,17.844,0,0,1-5.568-3.209L3.5,19.821a19.24,19.24,0,0,1-2.089-2.078l-.071-.082A13.2,13.2,0,0,1,.828,14c0-.248.007-.5.021-.745C.866,13.272,1.25,13.656,1.375,13.777ZM2.1,19.659q.291.279.593.546a18.593,18.593,0,0,0,5.682,3.447A19.031,19.031,0,0,0,10.4,24.3a17.025,17.025,0,0,0,3.525.55q-.081.335-.176.667a14.758,14.758,0,0,1-.573,1.634A13.169,13.169,0,0,1,2.1,19.659Zm12,7.406a22.6,22.6,0,0,0,.7-12.144c-.06-.316-.125-.631-.2-.944l0-.012A23.5,23.5,0,0,1,17.069,11.9l.009-.007a13.916,13.916,0,0,1,1.638-1.1c.012,0,.206.521.227.579a21.747,21.747,0,0,1,.788,11.171,25.02,25.02,0,0,1-.97,3.678l-.031.087a13.111,13.111,0,0,1-4.673.871ZM23.995,22.6l-.008.01a13.276,13.276,0,0,1-4.245,3.259l.035-.112a25.686,25.686,0,0,0,.7-2.763,23.725,23.725,0,0,0,.352-6.7,19.676,19.676,0,0,0-1.4-5.911l0-.012.236-.132A19.812,19.812,0,0,1,22.377,9q.413-.151.833-.282c.015,0,.056.117.062.133a20.114,20.114,0,0,1,1.6,5.726,19.593,19.593,0,0,1-.3,6.461q-.134.623-.305,1.237C24.181,22.381,24.089,22.491,23.995,22.6Zm1.536-2.193.007-.044a20.409,20.409,0,0,0,.272-4.387,20.612,20.612,0,0,0-.625-4.164,19.72,19.72,0,0,0-1.166-3.306l-.008-.017.128-.032c.422-.1.848-.186,1.277-.254.059-.009.329-.046.4-.056A13.22,13.22,0,0,1,27.188,14,13.039,13.039,0,0,1,25.531,20.408ZM21.137,2.979c-.515.115-1.026.263-1.531.417q-.227.069-.451.142a.41.41,0,0,0,.254.78q.224-.073.45-.141c.535-.163,1.081-.31,1.627-.438l.185-.042q.217-.049.435-.094a13.342,13.342,0,0,1,3.3,3.774A15.449,15.449,0,0,0,22.739,8a23,23,0,0,0-8.676,5.339l-.034.033a26.117,26.117,0,0,1-4.482-1.912h0l-.273-.15s.17-.233.182-.249a17.023,17.023,0,0,1,2.946-3,21.024,21.024,0,0,1,3.528-2.293c.591-.306,1.2-.589,1.812-.838a.41.41,0,1,0-.312-.759q-.571.235-1.129.5a22.279,22.279,0,0,0-3.662,2.177,19.938,19.938,0,0,0-2.621,2.3,15.711,15.711,0,0,0-1.335,1.585q-.062.085-.123.171-.634-.381-1.243-.8A19.091,19.091,0,0,1,5.611,8.776L5.4,8.586,5.4,8.573q.057-.094.117-.187A15.41,15.41,0,0,1,9.552,4.224a17.505,17.505,0,0,1,5.493-2.609q.893-.248,1.807-.408l.2-.034a13.022,13.022,0,0,1,4.162,1.788ZM14.008.82q.378,0,.754.021l-.027.008-.082.024a19.019,19.019,0,0,0-1.9.658,17.779,17.779,0,0,0-6.363,4.41,14.8,14.8,0,0,0-1.6,2.071A15.326,15.326,0,0,1,3.54,6.623Q3.418,6.47,3.3,6.313A13.188,13.188,0,0,1,14.008.82Z"/>
    </g>
  </g>
</svg>
